<svg width="1440" height="96" viewBox="0 0 1440 96" fill="none" xmlns="http://www.w3.org/2000/svg">
<rect width="1458" height="96" transform="translate(-9)" fill="#6A65FF"/>
<path d="M-54.3359 58.32C-61.6639 58.32 -64.3519 55.024 -64.3519 48.816V47.984H-57.9519V48.752C-57.9519 51.664 -57.7919 52.496 -54.3359 52.496C-50.9119 52.496 -50.6559 51.728 -50.6559 49.072V36.56H-44.2559V49.136C-44.2559 55.12 -46.9759 58.32 -54.3359 58.32ZM-33.5339 58.32C-39.1339 58.32 -42.9419 55.152 -42.9419 49.936C-42.9419 44.688 -39.1339 41.552 -33.5339 41.552C-27.9339 41.552 -24.1259 44.688 -24.1259 49.936C-24.1259 55.152 -27.9339 58.32 -33.5339 58.32ZM-33.5339 53.008C-30.8139 53.008 -30.0779 52.272 -30.0779 49.936C-30.0779 47.6 -30.8139 46.832 -33.5339 46.832C-36.2539 46.832 -36.9899 47.6 -36.9899 49.936C-36.9899 52.272 -36.2539 53.008 -33.5339 53.008ZM-16.6646 40.4H-22.6806V36.56H-16.6646V40.4ZM-16.6646 58H-22.6806V41.872H-16.6646V58ZM-8.72712 58H-14.7431V41.872H-9.11112V46.768H-8.79112C-8.43912 44.08 -6.67912 41.552 -2.35912 41.552C1.99288 41.552 4.04088 44.176 4.04088 47.664V58H-1.97512V49.872C-1.97512 47.632 -2.80712 46.928 -5.43112 46.928C-8.08712 46.928 -8.72712 47.6 -8.72712 49.68V58ZM23.4081 58H17.3921V41.968H9.80813V36.56H30.9601V41.968H23.4081V58ZM38.4291 58H32.4131V36.56H38.4291V46.768H38.7491C39.2611 44.048 41.0531 41.552 45.1811 41.552C49.4691 41.552 51.5171 44.272 51.5171 47.856V58H45.5011V49.872C45.5011 47.632 44.6371 46.928 41.8851 46.928C39.1011 46.928 38.4291 47.6 38.4291 49.68V58ZM62.3114 58.32C56.8394 58.32 52.9994 55.984 52.9994 49.936C52.9994 44.688 56.8074 41.552 62.1834 41.552C67.7514 41.552 71.3034 44.336 71.3034 49.52C71.3034 50.064 71.2714 50.48 71.2074 51.056H58.5674C58.6634 53.008 59.5274 53.552 62.0874 53.552C64.5194 53.552 65.1594 53.136 65.1594 52.176V51.824H71.1754V52.208C71.1754 55.792 67.7514 58.32 62.3114 58.32ZM62.0554 46.16C59.8474 46.16 58.9194 46.64 58.6634 48.016H65.4794C65.2554 46.64 64.2954 46.16 62.0554 46.16ZM90.1179 58H81.1899L76.7099 36.56H83.4299L85.2219 47.472L85.7979 52.304H86.2139L87.0779 47.472L89.9579 36.56H99.0139L101.638 47.472L102.406 52.304H102.822L103.462 47.472L105.478 36.56H112.07L107.174 58H98.2459L96.0059 48.816L94.5979 42.096H94.1819L92.6779 48.816L90.1179 58ZM118.535 58.32C114.887 58.32 112.839 56.656 112.839 53.904C112.839 51.632 114.407 50 118.055 49.648L124.615 49.008V48.688C124.615 47.056 123.911 46.8 121.767 46.8C119.783 46.8 119.175 47.184 119.175 48.528V48.656H113.159V48.592C113.159 44.304 116.743 41.552 122.215 41.552C127.847 41.552 130.567 44.304 130.567 48.816V58H124.935V54.608H124.615C124.007 56.88 122.023 58.32 118.535 58.32ZM118.887 53.52C118.887 54.032 119.399 54.128 120.327 54.128C123.239 54.128 124.423 53.776 124.583 52.336L119.655 52.912C119.111 52.976 118.887 53.168 118.887 53.52ZM138.367 40.4H132.351V36.56H138.367V40.4ZM138.367 58H132.351V41.872H138.367V58ZM152.352 58H148.128C144.096 58 141.696 56.048 141.696 51.856V46.8H139.328V41.872H141.696V39.088H147.712V41.872H152.352V46.8H147.712V50.992C147.712 52.272 148.096 52.592 149.472 52.592H152.352V58ZM159.804 58H153.788V36.56H159.804V58ZM167.742 40.4H161.726V36.56H167.742V40.4ZM167.742 58H161.726V41.872H167.742V58ZM178.335 58.32C172.639 58.32 169.599 56.112 169.599 52.4V52.272H175.615V52.592C175.615 53.488 176.191 53.584 178.367 53.584C180.447 53.584 180.767 53.36 180.767 52.816C180.767 52.304 180.511 52.176 179.007 52.016L174.335 51.504C171.007 51.152 169.215 49.584 169.215 46.864C169.215 44.016 171.487 41.552 177.535 41.552C183.135 41.552 186.111 43.568 186.111 47.536V47.664H180.095V47.472C180.095 46.64 179.775 46.256 177.343 46.256C175.391 46.256 175.135 46.512 175.135 47.12C175.135 47.568 175.391 47.792 177.279 47.984L180.479 48.336C185.183 48.848 186.687 50.416 186.687 53.136C186.687 56.144 183.679 58.32 178.335 58.32ZM200.196 58H195.972C191.94 58 189.54 56.048 189.54 51.856V46.8H187.172V41.872H189.54V39.088H195.556V41.872H200.196V46.8H195.556V50.992C195.556 52.272 195.94 52.592 197.316 52.592H200.196V58Z" fill="white"/>
<path d="M597.664 58.32C590.336 58.32 587.648 55.024 587.648 48.816V47.984H594.048V48.752C594.048 51.664 594.208 52.496 597.664 52.496C601.088 52.496 601.344 51.728 601.344 49.072V36.56H607.744V49.136C607.744 55.12 605.024 58.32 597.664 58.32ZM618.466 58.32C612.866 58.32 609.058 55.152 609.058 49.936C609.058 44.688 612.866 41.552 618.466 41.552C624.066 41.552 627.874 44.688 627.874 49.936C627.874 55.152 624.066 58.32 618.466 58.32ZM618.466 53.008C621.186 53.008 621.922 52.272 621.922 49.936C621.922 47.6 621.186 46.832 618.466 46.832C615.746 46.832 615.01 47.6 615.01 49.936C615.01 52.272 615.746 53.008 618.466 53.008ZM635.335 40.4H629.319V36.56H635.335V40.4ZM635.335 58H629.319V41.872H635.335V58ZM643.273 58H637.257V41.872H642.889V46.768H643.209C643.561 44.08 645.321 41.552 649.641 41.552C653.993 41.552 656.041 44.176 656.041 47.664V58H650.025V49.872C650.025 47.632 649.193 46.928 646.569 46.928C643.913 46.928 643.273 47.6 643.273 49.68V58ZM675.408 58H669.392V41.968H661.808V36.56H682.96V41.968H675.408V58ZM690.429 58H684.413V36.56H690.429V46.768H690.749C691.261 44.048 693.053 41.552 697.181 41.552C701.469 41.552 703.517 44.272 703.517 47.856V58H697.501V49.872C697.501 47.632 696.637 46.928 693.885 46.928C691.101 46.928 690.429 47.6 690.429 49.68V58ZM714.311 58.32C708.839 58.32 704.999 55.984 704.999 49.936C704.999 44.688 708.807 41.552 714.183 41.552C719.751 41.552 723.303 44.336 723.303 49.52C723.303 50.064 723.271 50.48 723.207 51.056H710.567C710.663 53.008 711.527 53.552 714.087 53.552C716.519 53.552 717.159 53.136 717.159 52.176V51.824H723.175V52.208C723.175 55.792 719.751 58.32 714.311 58.32ZM714.055 46.16C711.847 46.16 710.919 46.64 710.663 48.016H717.479C717.255 46.64 716.295 46.16 714.055 46.16ZM742.118 58H733.19L728.71 36.56H735.43L737.222 47.472L737.798 52.304H738.214L739.078 47.472L741.958 36.56H751.014L753.638 47.472L754.406 52.304H754.822L755.462 47.472L757.478 36.56H764.07L759.174 58H750.246L748.006 48.816L746.598 42.096H746.182L744.678 48.816L742.118 58ZM770.535 58.32C766.887 58.32 764.839 56.656 764.839 53.904C764.839 51.632 766.407 50 770.055 49.648L776.615 49.008V48.688C776.615 47.056 775.911 46.8 773.767 46.8C771.783 46.8 771.175 47.184 771.175 48.528V48.656H765.159V48.592C765.159 44.304 768.743 41.552 774.215 41.552C779.847 41.552 782.567 44.304 782.567 48.816V58H776.935V54.608H776.615C776.007 56.88 774.023 58.32 770.535 58.32ZM770.887 53.52C770.887 54.032 771.399 54.128 772.327 54.128C775.239 54.128 776.423 53.776 776.583 52.336L771.655 52.912C771.111 52.976 770.887 53.168 770.887 53.52ZM790.367 40.4H784.351V36.56H790.367V40.4ZM790.367 58H784.351V41.872H790.367V58ZM804.352 58H800.128C796.096 58 793.696 56.048 793.696 51.856V46.8H791.328V41.872H793.696V39.088H799.712V41.872H804.352V46.8H799.712V50.992C799.712 52.272 800.096 52.592 801.472 52.592H804.352V58ZM811.804 58H805.788V36.56H811.804V58ZM819.742 40.4H813.726V36.56H819.742V40.4ZM819.742 58H813.726V41.872H819.742V58ZM830.335 58.32C824.639 58.32 821.599 56.112 821.599 52.4V52.272H827.615V52.592C827.615 53.488 828.191 53.584 830.367 53.584C832.447 53.584 832.767 53.36 832.767 52.816C832.767 52.304 832.511 52.176 831.007 52.016L826.335 51.504C823.007 51.152 821.215 49.584 821.215 46.864C821.215 44.016 823.487 41.552 829.535 41.552C835.135 41.552 838.111 43.568 838.111 47.536V47.664H832.095V47.472C832.095 46.64 831.775 46.256 829.343 46.256C827.391 46.256 827.135 46.512 827.135 47.12C827.135 47.568 827.391 47.792 829.279 47.984L832.479 48.336C837.183 48.848 838.687 50.416 838.687 53.136C838.687 56.144 835.679 58.32 830.335 58.32ZM852.196 58H847.972C843.94 58 841.54 56.048 841.54 51.856V46.8H839.172V41.872H841.54V39.088H847.556V41.872H852.196V46.8H847.556V50.992C847.556 52.272 847.94 52.592 849.316 52.592H852.196V58Z" fill="white"/>
<path d="M1249.66 58.32C1242.34 58.32 1239.65 55.024 1239.65 48.816V47.984H1246.05V48.752C1246.05 51.664 1246.21 52.496 1249.66 52.496C1253.09 52.496 1253.34 51.728 1253.34 49.072V36.56H1259.74V49.136C1259.74 55.12 1257.02 58.32 1249.66 58.32ZM1270.47 58.32C1264.87 58.32 1261.06 55.152 1261.06 49.936C1261.06 44.688 1264.87 41.552 1270.47 41.552C1276.07 41.552 1279.87 44.688 1279.87 49.936C1279.87 55.152 1276.07 58.32 1270.47 58.32ZM1270.47 53.008C1273.19 53.008 1273.92 52.272 1273.92 49.936C1273.92 47.6 1273.19 46.832 1270.47 46.832C1267.75 46.832 1267.01 47.6 1267.01 49.936C1267.01 52.272 1267.75 53.008 1270.47 53.008ZM1287.34 40.4H1281.32V36.56H1287.34V40.4ZM1287.34 58H1281.32V41.872H1287.34V58ZM1295.27 58H1289.26V41.872H1294.89V46.768H1295.21C1295.56 44.08 1297.32 41.552 1301.64 41.552C1305.99 41.552 1308.04 44.176 1308.04 47.664V58H1302.02V49.872C1302.02 47.632 1301.19 46.928 1298.57 46.928C1295.91 46.928 1295.27 47.6 1295.27 49.68V58ZM1327.41 58H1321.39V41.968H1313.81V36.56H1334.96V41.968H1327.41V58ZM1342.43 58H1336.41V36.56H1342.43V46.768H1342.75C1343.26 44.048 1345.05 41.552 1349.18 41.552C1353.47 41.552 1355.52 44.272 1355.52 47.856V58H1349.5V49.872C1349.5 47.632 1348.64 46.928 1345.89 46.928C1343.1 46.928 1342.43 47.6 1342.43 49.68V58ZM1366.31 58.32C1360.84 58.32 1357 55.984 1357 49.936C1357 44.688 1360.81 41.552 1366.18 41.552C1371.75 41.552 1375.3 44.336 1375.3 49.52C1375.3 50.064 1375.27 50.48 1375.21 51.056H1362.57C1362.66 53.008 1363.53 53.552 1366.09 53.552C1368.52 53.552 1369.16 53.136 1369.16 52.176V51.824H1375.18V52.208C1375.18 55.792 1371.75 58.32 1366.31 58.32ZM1366.06 46.16C1363.85 46.16 1362.92 46.64 1362.66 48.016H1369.48C1369.26 46.64 1368.3 46.16 1366.06 46.16ZM1394.12 58H1385.19L1380.71 36.56H1387.43L1389.22 47.472L1389.8 52.304H1390.21L1391.08 47.472L1393.96 36.56H1403.01L1405.64 47.472L1406.41 52.304H1406.82L1407.46 47.472L1409.48 36.56H1416.07L1411.17 58H1402.25L1400.01 48.816L1398.6 42.096H1398.18L1396.68 48.816L1394.12 58ZM1422.54 58.32C1418.89 58.32 1416.84 56.656 1416.84 53.904C1416.84 51.632 1418.41 50 1422.06 49.648L1428.62 49.008V48.688C1428.62 47.056 1427.91 46.8 1425.77 46.8C1423.78 46.8 1423.18 47.184 1423.18 48.528V48.656H1417.16V48.592C1417.16 44.304 1420.74 41.552 1426.22 41.552C1431.85 41.552 1434.57 44.304 1434.57 48.816V58H1428.94V54.608H1428.62C1428.01 56.88 1426.02 58.32 1422.54 58.32ZM1422.89 53.52C1422.89 54.032 1423.4 54.128 1424.33 54.128C1427.24 54.128 1428.42 53.776 1428.58 52.336L1423.66 52.912C1423.11 52.976 1422.89 53.168 1422.89 53.52ZM1442.37 40.4H1436.35V36.56H1442.37V40.4ZM1442.37 58H1436.35V41.872H1442.37V58ZM1456.35 58H1452.13C1448.1 58 1445.7 56.048 1445.7 51.856V46.8H1443.33V41.872H1445.7V39.088H1451.71V41.872H1456.35V46.8H1451.71V50.992C1451.71 52.272 1452.1 52.592 1453.47 52.592H1456.35V58ZM1463.8 58H1457.79V36.56H1463.8V58ZM1471.74 40.4H1465.73V36.56H1471.74V40.4ZM1471.74 58H1465.73V41.872H1471.74V58ZM1482.34 58.32C1476.64 58.32 1473.6 56.112 1473.6 52.4V52.272H1479.62V52.592C1479.62 53.488 1480.19 53.584 1482.37 53.584C1484.45 53.584 1484.77 53.36 1484.77 52.816C1484.77 52.304 1484.51 52.176 1483.01 52.016L1478.34 51.504C1475.01 51.152 1473.22 49.584 1473.22 46.864C1473.22 44.016 1475.49 41.552 1481.54 41.552C1487.14 41.552 1490.11 43.568 1490.11 47.536V47.664H1484.1V47.472C1484.1 46.64 1483.78 46.256 1481.34 46.256C1479.39 46.256 1479.14 46.512 1479.14 47.12C1479.14 47.568 1479.39 47.792 1481.28 47.984L1484.48 48.336C1489.18 48.848 1490.69 50.416 1490.69 53.136C1490.69 56.144 1487.68 58.32 1482.34 58.32ZM1504.2 58H1499.97C1495.94 58 1493.54 56.048 1493.54 51.856V46.8H1491.17V41.872H1493.54V39.088H1499.56V41.872H1504.2V46.8H1499.56V50.992C1499.56 52.272 1499.94 52.592 1501.32 52.592H1504.2V58Z" fill="white"/>
<mask id="path-4-outside-1_1_377" maskUnits="userSpaceOnUse" x="260" y="35" width="268" height="25" fill="black">
<rect fill="white" x="260" y="35" width="268" height="25"/>
<path d="M271.664 58.32C264.336 58.32 261.648 55.024 261.648 48.816V47.984H268.048V48.752C268.048 51.664 268.208 52.496 271.664 52.496C275.088 52.496 275.344 51.728 275.344 49.072V36.56H281.744V49.136C281.744 55.12 279.024 58.32 271.664 58.32ZM292.466 58.32C286.866 58.32 283.058 55.152 283.058 49.936C283.058 44.688 286.866 41.552 292.466 41.552C298.066 41.552 301.874 44.688 301.874 49.936C301.874 55.152 298.066 58.32 292.466 58.32ZM292.466 53.008C295.186 53.008 295.922 52.272 295.922 49.936C295.922 47.6 295.186 46.832 292.466 46.832C289.746 46.832 289.01 47.6 289.01 49.936C289.01 52.272 289.746 53.008 292.466 53.008ZM309.335 40.4H303.319V36.56H309.335V40.4ZM309.335 58H303.319V41.872H309.335V58ZM317.273 58H311.257V41.872H316.889V46.768H317.209C317.561 44.08 319.321 41.552 323.641 41.552C327.993 41.552 330.041 44.176 330.041 47.664V58H324.025V49.872C324.025 47.632 323.193 46.928 320.569 46.928C317.913 46.928 317.273 47.6 317.273 49.68V58ZM349.408 58H343.392V41.968H335.808V36.56H356.96V41.968H349.408V58ZM364.429 58H358.413V36.56H364.429V46.768H364.749C365.261 44.048 367.053 41.552 371.181 41.552C375.469 41.552 377.517 44.272 377.517 47.856V58H371.501V49.872C371.501 47.632 370.637 46.928 367.885 46.928C365.101 46.928 364.429 47.6 364.429 49.68V58ZM388.311 58.32C382.839 58.32 378.999 55.984 378.999 49.936C378.999 44.688 382.807 41.552 388.183 41.552C393.751 41.552 397.303 44.336 397.303 49.52C397.303 50.064 397.271 50.48 397.207 51.056H384.567C384.663 53.008 385.527 53.552 388.087 53.552C390.519 53.552 391.159 53.136 391.159 52.176V51.824H397.175V52.208C397.175 55.792 393.751 58.32 388.311 58.32ZM388.055 46.16C385.847 46.16 384.919 46.64 384.663 48.016H391.479C391.255 46.64 390.295 46.16 388.055 46.16ZM416.118 58H407.19L402.71 36.56H409.43L411.222 47.472L411.798 52.304H412.214L413.078 47.472L415.958 36.56H425.014L427.638 47.472L428.406 52.304H428.822L429.462 47.472L431.478 36.56H438.07L433.174 58H424.246L422.006 48.816L420.598 42.096H420.182L418.678 48.816L416.118 58ZM444.535 58.32C440.887 58.32 438.839 56.656 438.839 53.904C438.839 51.632 440.407 50 444.055 49.648L450.615 49.008V48.688C450.615 47.056 449.911 46.8 447.767 46.8C445.783 46.8 445.175 47.184 445.175 48.528V48.656H439.159V48.592C439.159 44.304 442.743 41.552 448.215 41.552C453.847 41.552 456.567 44.304 456.567 48.816V58H450.935V54.608H450.615C450.007 56.88 448.023 58.32 444.535 58.32ZM444.887 53.52C444.887 54.032 445.399 54.128 446.327 54.128C449.239 54.128 450.423 53.776 450.583 52.336L445.655 52.912C445.111 52.976 444.887 53.168 444.887 53.52ZM464.367 40.4H458.351V36.56H464.367V40.4ZM464.367 58H458.351V41.872H464.367V58ZM478.352 58H474.128C470.096 58 467.696 56.048 467.696 51.856V46.8H465.328V41.872H467.696V39.088H473.712V41.872H478.352V46.8H473.712V50.992C473.712 52.272 474.096 52.592 475.472 52.592H478.352V58ZM485.804 58H479.788V36.56H485.804V58ZM493.742 40.4H487.726V36.56H493.742V40.4ZM493.742 58H487.726V41.872H493.742V58ZM504.335 58.32C498.639 58.32 495.599 56.112 495.599 52.4V52.272H501.615V52.592C501.615 53.488 502.191 53.584 504.367 53.584C506.447 53.584 506.767 53.36 506.767 52.816C506.767 52.304 506.511 52.176 505.007 52.016L500.335 51.504C497.007 51.152 495.215 49.584 495.215 46.864C495.215 44.016 497.487 41.552 503.535 41.552C509.135 41.552 512.111 43.568 512.111 47.536V47.664H506.095V47.472C506.095 46.64 505.775 46.256 503.343 46.256C501.391 46.256 501.135 46.512 501.135 47.12C501.135 47.568 501.391 47.792 503.279 47.984L506.479 48.336C511.183 48.848 512.687 50.416 512.687 53.136C512.687 56.144 509.679 58.32 504.335 58.32ZM526.196 58H521.972C517.94 58 515.54 56.048 515.54 51.856V46.8H513.172V41.872H515.54V39.088H521.556V41.872H526.196V46.8H521.556V50.992C521.556 52.272 521.94 52.592 523.316 52.592H526.196V58Z"/>
</mask>
<path d="M261.648 47.984V46.984H260.648V47.984H261.648ZM268.048 47.984H269.048V46.984H268.048V47.984ZM275.344 36.56V35.56H274.344V36.56H275.344ZM281.744 36.56H282.744V35.56H281.744V36.56ZM271.664 57.32C268.126 57.32 265.938 56.5218 264.618 55.1916C263.297 53.8609 262.648 51.8001 262.648 48.816H260.648C260.648 52.0399 261.343 54.7311 263.198 56.6004C265.054 58.4702 267.874 59.32 271.664 59.32V57.32ZM262.648 48.816V47.984H260.648V48.816H262.648ZM261.648 48.984H268.048V46.984H261.648V48.984ZM267.048 47.984V48.752H269.048V47.984H267.048ZM267.048 48.752C267.048 49.4716 267.057 50.138 267.137 50.7056C267.218 51.2791 267.386 51.8644 267.789 52.3525C268.203 52.8543 268.765 53.1346 269.402 53.2914C270.021 53.4441 270.775 53.496 271.664 53.496V51.496C270.825 51.496 270.263 51.4439 269.88 51.3496C269.515 51.2594 269.389 51.1497 269.331 51.0795C269.262 50.9956 269.174 50.8269 269.117 50.4254C269.06 50.018 269.048 49.4884 269.048 48.752H267.048ZM271.664 53.496C272.544 53.496 273.289 53.448 273.903 53.3102C274.526 53.1703 275.088 52.9213 275.517 52.4645C275.946 52.0081 276.14 51.4518 276.236 50.8989C276.33 50.3589 276.344 49.7344 276.344 49.072H274.344C274.344 49.7376 274.326 50.2051 274.265 50.5561C274.207 50.8942 274.123 51.0279 274.059 51.0955C273.996 51.1627 273.852 51.2717 273.465 51.3588C273.067 51.448 272.496 51.496 271.664 51.496V53.496ZM276.344 49.072V36.56H274.344V49.072H276.344ZM275.344 37.56H281.744V35.56H275.344V37.56ZM280.744 36.56V49.136H282.744V36.56H280.744ZM280.744 49.136C280.744 51.9967 280.093 53.9726 278.769 55.2533C277.437 56.5423 275.225 57.32 271.664 57.32V59.32C275.463 59.32 278.292 58.4977 280.159 56.6907C282.036 54.8754 282.744 52.2593 282.744 49.136H280.744ZM292.466 57.32C289.849 57.32 287.75 56.5805 286.32 55.3311C284.906 54.0949 284.058 52.2839 284.058 49.936H282.058C282.058 52.8041 283.114 55.1851 285.004 56.8369C286.879 58.4755 289.484 59.32 292.466 59.32V57.32ZM284.058 49.936C284.058 47.5707 284.907 45.7609 286.319 44.5298C287.747 43.2848 289.846 42.552 292.466 42.552V40.552C289.486 40.552 286.881 41.3872 285.005 43.0222C283.113 44.6711 282.058 47.0533 282.058 49.936H284.058ZM292.466 42.552C295.086 42.552 297.185 43.2848 298.613 44.5298C300.025 45.7609 300.874 47.5707 300.874 49.936H302.874C302.874 47.0533 301.819 44.6711 299.927 43.0222C298.051 41.3872 295.446 40.552 292.466 40.552V42.552ZM300.874 49.936C300.874 52.2839 300.026 54.0949 298.612 55.3311C297.183 56.5805 295.084 57.32 292.466 57.32V59.32C295.449 59.32 298.054 58.4755 299.928 56.8369C301.818 55.1851 302.874 52.8041 302.874 49.936H300.874ZM292.466 54.008C293.841 54.008 295.058 53.8407 295.887 53.0882C296.748 52.3054 296.922 51.1441 296.922 49.936H294.922C294.922 51.0639 294.728 51.4386 294.542 51.6078C294.322 51.8073 293.812 52.008 292.466 52.008V54.008ZM296.922 49.936C296.922 48.7266 296.748 47.5631 295.893 46.7734C295.065 46.0093 293.848 45.832 292.466 45.832V47.832C293.805 47.832 294.315 48.0387 294.536 48.2426C294.729 48.4209 294.922 48.8094 294.922 49.936H296.922ZM292.466 45.832C291.085 45.832 289.867 46.0093 289.04 46.7734C288.185 47.5631 288.01 48.7266 288.01 49.936H290.01C290.01 48.8094 290.204 48.4209 290.397 48.2426C290.617 48.0387 291.128 47.832 292.466 47.832V45.832ZM288.01 49.936C288.01 51.1441 288.184 52.3054 289.046 53.0882C289.874 53.8407 291.092 54.008 292.466 54.008V52.008C291.121 52.008 290.61 51.8073 290.391 51.6078C290.204 51.4386 290.01 51.0639 290.01 49.936H288.01ZM309.335 40.4V41.4H310.335V40.4H309.335ZM303.319 40.4H302.319V41.4H303.319V40.4ZM303.319 36.56V35.56H302.319V36.56H303.319ZM309.335 36.56H310.335V35.56H309.335V36.56ZM309.335 58V59H310.335V58H309.335ZM303.319 58H302.319V59H303.319V58ZM303.319 41.872V40.872H302.319V41.872H303.319ZM309.335 41.872H310.335V40.872H309.335V41.872ZM309.335 39.4H303.319V41.4H309.335V39.4ZM304.319 40.4V36.56H302.319V40.4H304.319ZM303.319 37.56H309.335V35.56H303.319V37.56ZM308.335 36.56V40.4H310.335V36.56H308.335ZM309.335 57H303.319V59H309.335V57ZM304.319 58V41.872H302.319V58H304.319ZM303.319 42.872H309.335V40.872H303.319V42.872ZM308.335 41.872V58H310.335V41.872H308.335ZM317.273 58V59H318.273V58H317.273ZM311.257 58H310.257V59H311.257V58ZM311.257 41.872V40.872H310.257V41.872H311.257ZM316.889 41.872H317.889V40.872H316.889V41.872ZM316.889 46.768H315.889V47.768H316.889V46.768ZM317.209 46.768V47.768H318.086L318.2 46.8978L317.209 46.768ZM330.041 58V59H331.041V58H330.041ZM324.025 58H323.025V59H324.025V58ZM317.273 57H311.257V59H317.273V57ZM312.257 58V41.872H310.257V58H312.257ZM311.257 42.872H316.889V40.872H311.257V42.872ZM315.889 41.872V46.768H317.889V41.872H315.889ZM316.889 47.768H317.209V45.768H316.889V47.768ZM318.2 46.8978C318.355 45.7196 318.808 44.6504 319.624 43.8787C320.428 43.1186 321.685 42.552 323.641 42.552V40.552C321.277 40.552 319.494 41.2494 318.25 42.4253C317.018 43.5896 316.415 45.1284 316.217 46.6382L318.2 46.8978ZM323.641 42.552C325.612 42.552 326.928 43.1408 327.754 43.9952C328.587 44.8568 329.041 46.1112 329.041 47.664H331.041C331.041 45.7288 330.471 43.9272 329.192 42.6048C327.906 41.2752 326.022 40.552 323.641 40.552V42.552ZM329.041 47.664V58H331.041V47.664H329.041ZM330.041 57H324.025V59H330.041V57ZM325.025 58V49.872H323.025V58H325.025ZM325.025 49.872C325.025 48.6764 324.813 47.5505 323.929 46.7983C323.096 46.0901 321.901 45.928 320.569 45.928V47.928C321.861 47.928 322.393 48.1179 322.633 48.3217C322.821 48.4815 323.025 48.8276 323.025 49.872H325.025ZM320.569 45.928C319.238 45.928 318.065 46.0766 317.269 46.7695C316.421 47.507 316.273 48.6044 316.273 49.68H318.273C318.273 48.6756 318.445 48.397 318.581 48.2785C318.769 48.1154 319.244 47.928 320.569 47.928V45.928ZM316.273 49.68V58H318.273V49.68H316.273ZM349.408 58V59H350.408V58H349.408ZM343.392 58H342.392V59H343.392V58ZM343.392 41.968H344.392V40.968H343.392V41.968ZM335.808 41.968H334.808V42.968H335.808V41.968ZM335.808 36.56V35.56H334.808V36.56H335.808ZM356.96 36.56H357.96V35.56H356.96V36.56ZM356.96 41.968V42.968H357.96V41.968H356.96ZM349.408 41.968V40.968H348.408V41.968H349.408ZM349.408 57H343.392V59H349.408V57ZM344.392 58V41.968H342.392V58H344.392ZM343.392 40.968H335.808V42.968H343.392V40.968ZM336.808 41.968V36.56H334.808V41.968H336.808ZM335.808 37.56H356.96V35.56H335.808V37.56ZM355.96 36.56V41.968H357.96V36.56H355.96ZM356.96 40.968H349.408V42.968H356.96V40.968ZM348.408 41.968V58H350.408V41.968H348.408ZM364.429 58V59H365.429V58H364.429ZM358.413 58H357.413V59H358.413V58ZM358.413 36.56V35.56H357.413V36.56H358.413ZM364.429 36.56H365.429V35.56H364.429V36.56ZM364.429 46.768H363.429V47.768H364.429V46.768ZM364.749 46.768V47.768H365.578L365.732 46.953L364.749 46.768ZM377.517 58V59H378.517V58H377.517ZM371.501 58H370.501V59H371.501V58ZM364.429 57H358.413V59H364.429V57ZM359.413 58V36.56H357.413V58H359.413ZM358.413 37.56H364.429V35.56H358.413V37.56ZM363.429 36.56V46.768H365.429V36.56H363.429ZM364.429 47.768H364.749V45.768H364.429V47.768ZM365.732 46.953C365.96 45.7384 366.461 44.6497 367.293 43.8694C368.109 43.1041 369.332 42.552 371.181 42.552V40.552C368.902 40.552 367.165 41.2479 365.925 42.4106C364.701 43.5583 364.05 45.0776 363.766 46.583L365.732 46.953ZM371.181 42.552C373.105 42.552 374.402 43.1552 375.225 44.0406C376.059 44.9387 376.517 46.2476 376.517 47.856H378.517C378.517 45.8804 377.951 44.0373 376.69 42.6793C375.416 41.3088 373.545 40.552 371.181 40.552V42.552ZM376.517 47.856V58H378.517V47.856H376.517ZM377.517 57H371.501V59H377.517V57ZM372.501 58V49.872H370.501V58H372.501ZM372.501 49.872C372.501 48.6671 372.277 47.5341 371.357 46.7846C370.503 46.0892 369.276 45.928 367.885 45.928V47.928C369.246 47.928 369.828 48.1188 370.094 48.3354C370.293 48.4979 370.501 48.8369 370.501 49.872H372.501ZM367.885 45.928C366.494 45.928 365.292 46.0762 364.475 46.7543C363.589 47.4892 363.429 48.5941 363.429 49.68H365.429C365.429 48.6859 365.605 48.4148 365.752 48.2937C365.966 48.1158 366.492 47.928 367.885 47.928V45.928ZM363.429 49.68V58H365.429V49.68H363.429ZM397.207 51.056V52.056H398.102L398.201 51.1664L397.207 51.056ZM384.567 51.056V50.056H383.517L383.569 51.1051L384.567 51.056ZM391.159 51.824V50.824H390.159V51.824H391.159ZM397.175 51.824H398.175V50.824H397.175V51.824ZM384.663 48.016L383.68 47.8331L383.46 49.016H384.663V48.016ZM391.479 48.016V49.016H392.655L392.466 47.8553L391.479 48.016ZM388.311 57.32C385.695 57.32 383.631 56.7582 382.235 55.6209C380.877 54.5139 379.999 52.7351 379.999 49.936H377.999C377.999 53.1849 379.042 55.5981 380.972 57.1711C382.864 58.7138 385.456 59.32 388.311 59.32V57.32ZM379.999 49.936C379.999 47.5699 380.849 45.7565 382.239 44.5242C383.642 43.2797 385.685 42.552 388.183 42.552V40.552C385.306 40.552 382.756 41.3923 380.912 43.0278C379.054 44.6755 377.999 47.0541 377.999 49.936H379.999ZM388.183 42.552C390.813 42.552 392.836 43.2101 394.184 44.3545C395.509 45.4788 396.303 47.1725 396.303 49.52H398.303C398.303 46.6835 397.321 44.3932 395.478 42.8295C393.659 41.2859 391.121 40.552 388.183 40.552V42.552ZM396.303 49.52C396.303 50.0148 396.275 50.3915 396.213 50.9456L398.201 51.1664C398.268 50.5685 398.303 50.1132 398.303 49.52H396.303ZM397.207 50.056H384.567V52.056H397.207V50.056ZM383.569 51.1051C383.622 52.2011 383.907 53.215 384.834 53.8578C385.661 54.4313 386.805 54.552 388.087 54.552V52.552C386.81 52.552 386.242 52.4007 385.973 52.2142C385.804 52.097 385.608 51.8629 385.566 51.0069L383.569 51.1051ZM388.087 54.552C389.304 54.552 390.281 54.4574 390.97 54.1246C391.35 53.9413 391.676 53.671 391.893 53.2867C392.102 52.9143 392.159 52.5219 392.159 52.176H390.159C390.159 52.3101 390.136 52.3297 390.15 52.3053C390.171 52.269 390.185 52.2827 390.101 52.3234C389.862 52.4386 389.303 52.552 388.087 52.552V54.552ZM392.159 52.176V51.824H390.159V52.176H392.159ZM391.159 52.824H397.175V50.824H391.159V52.824ZM396.175 51.824V52.208H398.175V51.824H396.175ZM396.175 52.208C396.175 53.6417 395.506 54.8776 394.208 55.79C392.886 56.7194 390.89 57.32 388.311 57.32V59.32C391.173 59.32 393.608 58.6566 395.359 57.426C397.133 56.1784 398.175 54.3583 398.175 52.208H396.175ZM388.055 45.16C386.919 45.16 385.922 45.2757 385.152 45.6924C384.289 46.1587 383.851 46.918 383.68 47.8331L385.647 48.1989C385.732 47.738 385.885 47.5693 386.103 47.4516C386.413 47.2843 386.983 47.16 388.055 47.16V45.16ZM384.663 49.016H391.479V47.016H384.663V49.016ZM392.466 47.8553C392.314 46.9213 391.868 46.1555 390.994 45.6895C390.217 45.2755 389.206 45.16 388.055 45.16V47.16C389.145 47.16 389.734 47.2845 390.053 47.4545C390.275 47.5725 390.42 47.7347 390.492 48.1767L392.466 47.8553ZM416.118 58V59H416.877L417.081 58.2685L416.118 58ZM407.19 58L406.211 58.2045L406.377 59H407.19V58ZM402.71 36.56V35.56H401.479L401.731 36.7645L402.71 36.56ZM409.43 36.56L410.417 36.3979L410.279 35.56H409.43V36.56ZM411.222 47.472L412.215 47.3536L412.212 47.3317L412.209 47.3099L411.222 47.472ZM411.798 52.304L410.805 52.4224L410.91 53.304H411.798V52.304ZM412.214 52.304V53.304H413.051L413.198 52.48L412.214 52.304ZM413.078 47.472L412.111 47.2168L412.101 47.256L412.093 47.296L413.078 47.472ZM415.958 36.56V35.56H415.188L414.991 36.3048L415.958 36.56ZM425.014 36.56L425.986 36.3262L425.802 35.56H425.014V36.56ZM427.638 47.472L428.625 47.315L428.619 47.2763L428.61 47.2382L427.638 47.472ZM428.406 52.304L427.418 52.461L427.552 53.304H428.406V52.304ZM428.822 52.304V53.304H429.698L429.813 52.4353L428.822 52.304ZM429.462 47.472L428.479 47.2903L428.474 47.3154L428.471 47.3407L429.462 47.472ZM431.478 36.56V35.56H430.646L430.495 36.3783L431.478 36.56ZM438.07 36.56L439.045 36.7826L439.324 35.56H438.07V36.56ZM433.174 58V59H433.971L434.149 58.2226L433.174 58ZM424.246 58L423.274 58.237L423.46 59H424.246V58ZM422.006 48.816L421.027 49.0211L421.03 49.0371L421.034 49.053L422.006 48.816ZM420.598 42.096L421.577 41.8909L421.41 41.096H420.598V42.096ZM420.182 42.096V41.096H419.381L419.206 41.8776L420.182 42.096ZM418.678 48.816L419.641 49.0845L419.648 49.0596L419.654 49.0344L418.678 48.816ZM416.118 57H407.19V59H416.118V57ZM408.169 57.7955L403.689 36.3555L401.731 36.7645L406.211 58.2045L408.169 57.7955ZM402.71 37.56H409.43V35.56H402.71V37.56ZM408.443 36.7221L410.235 47.6341L412.209 47.3099L410.417 36.3979L408.443 36.7221ZM410.229 47.5904L410.805 52.4224L412.791 52.1856L412.215 47.3536L410.229 47.5904ZM411.798 53.304H412.214V51.304H411.798V53.304ZM413.198 52.48L414.062 47.648L412.093 47.296L411.229 52.128L413.198 52.48ZM414.045 47.7272L416.925 36.8152L414.991 36.3048L412.111 47.2168L414.045 47.7272ZM415.958 37.56H425.014V35.56H415.958V37.56ZM424.042 36.7938L426.666 47.7058L428.61 47.2382L425.986 36.3262L424.042 36.7938ZM426.65 47.629L427.418 52.461L429.393 52.147L428.625 47.315L426.65 47.629ZM428.406 53.304H428.822V51.304H428.406V53.304ZM429.813 52.4353L430.453 47.6033L428.471 47.3407L427.831 52.1727L429.813 52.4353ZM430.445 47.6537L432.461 36.7417L430.495 36.3783L428.479 47.2903L430.445 47.6537ZM431.478 37.56H438.07V35.56H431.478V37.56ZM437.095 36.3374L432.199 57.7774L434.149 58.2226L439.045 36.7826L437.095 36.3374ZM433.174 57H424.246V59H433.174V57ZM425.217 57.763L422.977 48.579L421.034 49.053L423.274 58.237L425.217 57.763ZM422.985 48.6109L421.577 41.8909L419.619 42.3011L421.027 49.0211L422.985 48.6109ZM420.598 41.096H420.182V43.096H420.598V41.096ZM419.206 41.8776L417.702 48.5976L419.654 49.0344L421.158 42.3144L419.206 41.8776ZM417.715 48.5475L415.155 57.7315L417.081 58.2685L419.641 49.0845L417.715 48.5475ZM444.055 49.648L444.151 50.6434L444.152 50.6433L444.055 49.648ZM450.615 49.008L450.712 50.0033L451.615 49.9152V49.008H450.615ZM445.175 48.656V49.656H446.175V48.656H445.175ZM439.159 48.656H438.159V49.656H439.159V48.656ZM456.567 58V59H457.567V58H456.567ZM450.935 58H449.935V59H450.935V58ZM450.935 54.608H451.935V53.608H450.935V54.608ZM450.615 54.608V53.608H449.848L449.649 54.3495L450.615 54.608ZM450.583 52.336L451.577 52.4464L451.716 51.1968L450.467 51.3428L450.583 52.336ZM445.655 52.912L445.539 51.9188L445.539 51.9188L445.655 52.912ZM444.535 57.32C442.847 57.32 441.67 56.9331 440.937 56.3575C440.236 55.8073 439.839 55.0074 439.839 53.904H437.839C437.839 55.5526 438.467 56.9607 439.702 57.9305C440.905 58.8749 442.576 59.32 444.535 59.32V57.32ZM439.839 53.904C439.839 53.0207 440.132 52.3343 440.735 51.8112C441.369 51.2609 442.444 50.8081 444.151 50.6434L443.959 48.6526C442.019 48.8399 440.486 49.3791 439.424 50.3008C438.331 51.2497 437.839 52.5153 437.839 53.904H439.839ZM444.152 50.6433L450.712 50.0033L450.518 48.0127L443.958 48.6527L444.152 50.6433ZM451.615 49.008V48.688H449.615V49.008H451.615ZM451.615 48.688C451.615 47.7616 451.416 46.8215 450.512 46.2759C450.124 46.0415 449.682 45.9326 449.25 45.8744C448.815 45.8158 448.315 45.8 447.767 45.8V47.8C448.292 47.8 448.684 47.8162 448.983 47.8566C449.287 47.8974 449.423 47.9545 449.479 47.9881C449.505 48.0042 449.519 48.0132 449.541 48.0699C449.575 48.1575 449.615 48.3378 449.615 48.688H451.615ZM447.767 45.8C446.787 45.8 445.854 45.8784 445.177 46.3254C444.361 46.8637 444.175 47.7231 444.175 48.528H446.175C446.175 48.2564 446.208 48.1189 446.233 48.0552C446.248 48.0155 446.257 48.0088 446.278 47.9946C446.32 47.9667 446.434 47.9108 446.693 47.8669C446.95 47.8233 447.297 47.8 447.767 47.8V45.8ZM444.175 48.528V48.656H446.175V48.528H444.175ZM445.175 47.656H439.159V49.656H445.175V47.656ZM440.159 48.656V48.592H438.159V48.656H440.159ZM440.159 48.592C440.159 46.7564 440.913 45.2886 442.248 44.2545C443.607 43.2016 445.636 42.552 448.215 42.552V40.552C445.323 40.552 442.824 41.2784 441.023 42.6735C439.198 44.0874 438.159 46.1396 438.159 48.592H440.159ZM448.215 42.552C450.882 42.552 452.694 43.2038 453.833 44.2336C454.955 45.2491 455.567 46.7643 455.567 48.816H457.567C457.567 46.3557 456.82 44.2388 455.174 42.7504C453.545 41.2762 451.181 40.552 448.215 40.552V42.552ZM455.567 48.816V58H457.567V48.816H455.567ZM456.567 57H450.935V59H456.567V57ZM451.935 58V54.608H449.935V58H451.935ZM450.935 53.608H450.615V55.608H450.935V53.608ZM449.649 54.3495C449.406 55.2577 448.903 55.9711 448.117 56.4733C447.314 56.9863 446.149 57.32 444.535 57.32V59.32C446.41 59.32 447.981 58.9337 449.194 58.1587C450.424 57.3729 451.216 56.2303 451.581 54.8665L449.649 54.3495ZM443.887 53.52C443.887 53.8228 443.967 54.1525 444.19 54.4419C444.405 54.7199 444.683 54.8713 444.92 54.9567C445.35 55.1118 445.877 55.128 446.327 55.128V53.128C446.109 53.128 445.939 53.1222 445.806 53.1095C445.668 53.0964 445.61 53.0793 445.599 53.0753C445.592 53.0728 445.684 53.1041 445.774 53.2201C445.872 53.3475 445.887 53.4732 445.887 53.52H443.887ZM446.327 55.128C447.774 55.128 448.976 55.0483 449.854 54.7024C450.321 54.5183 450.742 54.2429 451.057 53.8286C451.371 53.415 451.523 52.9382 451.577 52.4464L449.589 52.2256C449.564 52.4538 449.508 52.561 449.464 52.6184C449.421 52.6751 449.334 52.7577 449.121 52.8416C448.639 53.0317 447.793 53.128 446.327 53.128V55.128ZM450.467 51.3428L445.539 51.9188L445.771 53.9052L450.699 53.3292L450.467 51.3428ZM445.539 51.9188C445.198 51.9589 444.782 52.0538 444.44 52.3296C444.037 52.6545 443.887 53.1022 443.887 53.52H445.887C445.887 53.5374 445.885 53.5993 445.849 53.681C445.812 53.7684 445.754 53.8388 445.695 53.8864C445.642 53.929 445.608 53.938 445.622 53.9332C445.637 53.9282 445.683 53.9157 445.772 53.9051L445.539 51.9188ZM464.367 40.4V41.4H465.367V40.4H464.367ZM458.351 40.4H457.351V41.4H458.351V40.4ZM458.351 36.56V35.56H457.351V36.56H458.351ZM464.367 36.56H465.367V35.56H464.367V36.56ZM464.367 58V59H465.367V58H464.367ZM458.351 58H457.351V59H458.351V58ZM458.351 41.872V40.872H457.351V41.872H458.351ZM464.367 41.872H465.367V40.872H464.367V41.872ZM464.367 39.4H458.351V41.4H464.367V39.4ZM459.351 40.4V36.56H457.351V40.4H459.351ZM458.351 37.56H464.367V35.56H458.351V37.56ZM463.367 36.56V40.4H465.367V36.56H463.367ZM464.367 57H458.351V59H464.367V57ZM459.351 58V41.872H457.351V58H459.351ZM458.351 42.872H464.367V40.872H458.351V42.872ZM463.367 41.872V58H465.367V41.872H463.367ZM478.352 58V59H479.352V58H478.352ZM467.696 46.8H468.696V45.8H467.696V46.8ZM465.328 46.8H464.328V47.8H465.328V46.8ZM465.328 41.872V40.872H464.328V41.872H465.328ZM467.696 41.872V42.872H468.696V41.872H467.696ZM467.696 39.088V38.088H466.696V39.088H467.696ZM473.712 39.088H474.712V38.088H473.712V39.088ZM473.712 41.872H472.712V42.872H473.712V41.872ZM478.352 41.872H479.352V40.872H478.352V41.872ZM478.352 46.8V47.8H479.352V46.8H478.352ZM473.712 46.8V45.8H472.712V46.8H473.712ZM478.352 52.592H479.352V51.592H478.352V52.592ZM478.352 57H474.128V59H478.352V57ZM474.128 57C472.258 57 470.931 56.5467 470.076 55.7628C469.236 54.9932 468.696 53.761 468.696 51.856H466.696C466.696 54.143 467.356 55.9828 468.724 57.2372C470.077 58.4773 471.966 59 474.128 59V57ZM468.696 51.856V46.8H466.696V51.856H468.696ZM467.696 45.8H465.328V47.8H467.696V45.8ZM466.328 46.8V41.872H464.328V46.8H466.328ZM465.328 42.872H467.696V40.872H465.328V42.872ZM468.696 41.872V39.088H466.696V41.872H468.696ZM467.696 40.088H473.712V38.088H467.696V40.088ZM472.712 39.088V41.872H474.712V39.088H472.712ZM473.712 42.872H478.352V40.872H473.712V42.872ZM477.352 41.872V46.8H479.352V41.872H477.352ZM478.352 45.8H473.712V47.8H478.352V45.8ZM472.712 46.8V50.992H474.712V46.8H472.712ZM472.712 50.992C472.712 51.6557 472.792 52.4643 473.409 53.017C473.988 53.5359 474.794 53.592 475.472 53.592V51.592C475.157 51.592 474.957 51.5727 474.829 51.5449C474.709 51.5186 474.709 51.4967 474.743 51.5271C474.784 51.5637 474.777 51.588 474.758 51.5179C474.735 51.432 474.712 51.2734 474.712 50.992H472.712ZM475.472 53.592H478.352V51.592H475.472V53.592ZM477.352 52.592V58H479.352V52.592H477.352ZM485.804 58V59H486.804V58H485.804ZM479.788 58H478.788V59H479.788V58ZM479.788 36.56V35.56H478.788V36.56H479.788ZM485.804 36.56H486.804V35.56H485.804V36.56ZM485.804 57H479.788V59H485.804V57ZM480.788 58V36.56H478.788V58H480.788ZM479.788 37.56H485.804V35.56H479.788V37.56ZM484.804 36.56V58H486.804V36.56H484.804ZM493.742 40.4V41.4H494.742V40.4H493.742ZM487.726 40.4H486.726V41.4H487.726V40.4ZM487.726 36.56V35.56H486.726V36.56H487.726ZM493.742 36.56H494.742V35.56H493.742V36.56ZM493.742 58V59H494.742V58H493.742ZM487.726 58H486.726V59H487.726V58ZM487.726 41.872V40.872H486.726V41.872H487.726ZM493.742 41.872H494.742V40.872H493.742V41.872ZM493.742 39.4H487.726V41.4H493.742V39.4ZM488.726 40.4V36.56H486.726V40.4H488.726ZM487.726 37.56H493.742V35.56H487.726V37.56ZM492.742 36.56V40.4H494.742V36.56H492.742ZM493.742 57H487.726V59H493.742V57ZM488.726 58V41.872H486.726V58H488.726ZM487.726 42.872H493.742V40.872H487.726V42.872ZM492.742 41.872V58H494.742V41.872H492.742ZM495.599 52.272V51.272H494.599V52.272H495.599ZM501.615 52.272H502.615V51.272H501.615V52.272ZM505.007 52.016L504.898 53.0101L504.901 53.0104L505.007 52.016ZM500.335 51.504L500.444 50.5099L500.44 50.5095L500.335 51.504ZM512.111 47.664V48.664H513.111V47.664H512.111ZM506.095 47.664H505.095V48.664H506.095V47.664ZM503.279 47.984L503.388 46.99L503.38 46.9891L503.279 47.984ZM506.479 48.336L506.37 49.33L506.371 49.3301L506.479 48.336ZM504.335 57.32C501.594 57.32 499.639 56.785 498.399 55.929C497.209 55.1076 496.599 53.9415 496.599 52.4H494.599C494.599 54.5705 495.509 56.3644 497.263 57.575C498.967 58.751 501.381 59.32 504.335 59.32V57.32ZM496.599 52.4V52.272H494.599V52.4H496.599ZM495.599 53.272H501.615V51.272H495.599V53.272ZM500.615 52.272V52.592H502.615V52.272H500.615ZM500.615 52.592C500.615 52.9075 500.663 53.3051 500.901 53.6711C501.152 54.0554 501.517 54.2609 501.864 54.3745C502.194 54.4822 502.571 54.5284 502.955 54.553C503.35 54.5782 503.822 54.584 504.367 54.584V52.584C503.825 52.584 503.408 52.5778 503.083 52.557C502.748 52.5356 502.572 52.5018 502.486 52.4735C502.417 52.4511 502.502 52.4646 502.577 52.5789C502.639 52.6749 502.615 52.7245 502.615 52.592H500.615ZM504.367 54.584C505.384 54.584 506.159 54.5371 506.69 54.3435C506.99 54.2339 507.309 54.0447 507.527 53.7052C507.737 53.3761 507.767 53.0375 507.767 52.816H505.767C505.767 52.8665 505.757 52.7599 505.843 52.6258C505.935 52.4813 506.044 52.4501 506.005 52.4645C505.953 52.4833 505.817 52.5183 505.529 52.5447C505.249 52.5702 504.873 52.584 504.367 52.584V54.584ZM507.767 52.816C507.767 52.6206 507.746 52.3187 507.58 52.0162C507.402 51.6911 507.13 51.4955 506.869 51.3756C506.438 51.1773 505.819 51.0967 505.113 51.0216L504.901 53.0104C505.271 53.0498 505.54 53.0847 505.739 53.1206C505.837 53.1383 505.908 53.1545 505.96 53.1687C505.985 53.1756 506.003 53.1814 506.016 53.1858C506.028 53.1903 506.034 53.1927 506.033 53.1924C506.025 53.1885 505.911 53.1309 505.827 52.9788C505.756 52.8493 505.767 52.7554 505.767 52.816H507.767ZM505.116 51.022L500.444 50.51L500.226 52.498L504.898 53.01L505.116 51.022ZM500.44 50.5095C498.896 50.3462 497.847 49.9131 497.195 49.328C496.573 48.7694 496.215 47.9844 496.215 46.864H494.215C494.215 48.4636 494.753 49.8226 495.859 50.816C496.936 51.7829 498.446 52.3098 500.23 52.4985L500.44 50.5095ZM496.215 46.864C496.215 45.7347 496.65 44.7161 497.699 43.9461C498.787 43.1474 500.627 42.552 503.535 42.552V40.552C500.395 40.552 498.075 41.1886 496.515 42.3339C494.916 43.5079 494.215 45.1453 494.215 46.864H496.215ZM503.535 42.552C506.243 42.552 508.15 43.0444 509.354 43.8781C510.496 44.6692 511.111 45.8393 511.111 47.536H513.111C513.111 45.2647 512.238 43.4428 510.492 42.2339C508.808 41.0676 506.427 40.552 503.535 40.552V42.552ZM511.111 47.536V47.664H513.111V47.536H511.111ZM512.111 46.664H506.095V48.664H512.111V46.664ZM507.095 47.664V47.472H505.095V47.664H507.095ZM507.095 47.472C507.095 47.2181 507.074 46.8702 506.921 46.5249C506.751 46.1425 506.463 45.8576 506.093 45.6651C505.753 45.4881 505.355 45.3935 504.93 45.3376C504.497 45.2805 503.972 45.256 503.343 45.256V47.256C503.93 47.256 504.358 47.2795 504.669 47.3204C504.988 47.3625 505.125 47.4159 505.169 47.4389C505.184 47.4464 505.127 47.4135 505.093 47.3371C505.076 47.2978 505.095 47.3099 505.095 47.472H507.095ZM503.343 45.256C502.838 45.256 502.415 45.2723 502.063 45.3117C501.721 45.3501 501.386 45.4164 501.093 45.5496C500.773 45.6954 500.486 45.9296 500.31 46.2829C500.152 46.6008 500.135 46.9173 500.135 47.12H502.135C502.135 47.0187 502.15 47.0752 502.101 47.1741C502.073 47.2302 502.034 47.281 501.991 47.3204C501.95 47.3574 501.92 47.3708 501.921 47.3704C501.936 47.3636 502.031 47.3279 502.286 47.2993C502.532 47.2717 502.872 47.256 503.343 47.256V45.256ZM500.135 47.12C500.135 47.3208 500.162 47.6307 500.353 47.9408C500.544 48.2522 500.823 48.4396 501.086 48.5588C501.556 48.7719 502.251 48.8846 503.178 48.9789L503.38 46.9891C502.922 46.9425 502.584 46.896 502.334 46.8486C502.077 46.7998 501.957 46.7577 501.912 46.7372C501.875 46.7204 501.972 46.7558 502.056 46.8932C502.14 47.0293 502.135 47.1432 502.135 47.12H500.135ZM503.17 48.978L506.37 49.33L506.588 47.342L503.388 46.99L503.17 48.978ZM506.371 49.3301C508.662 49.5795 509.975 50.0716 510.71 50.6791C511.38 51.232 511.687 51.9794 511.687 53.136H513.687C513.687 51.5726 513.242 50.176 511.984 49.1369C510.792 48.1524 509.001 47.6045 506.587 47.3419L506.371 49.3301ZM511.687 53.136C511.687 54.257 511.146 55.2558 509.971 56.0167C508.766 56.7977 506.888 57.32 504.335 57.32V59.32C507.126 59.32 509.424 58.7543 511.059 57.6953C512.724 56.6162 513.687 55.023 513.687 53.136H511.687ZM526.196 58V59H527.196V58H526.196ZM515.54 46.8H516.54V45.8H515.54V46.8ZM513.172 46.8H512.172V47.8H513.172V46.8ZM513.172 41.872V40.872H512.172V41.872H513.172ZM515.54 41.872V42.872H516.54V41.872H515.54ZM515.54 39.088V38.088H514.54V39.088H515.54ZM521.556 39.088H522.556V38.088H521.556V39.088ZM521.556 41.872H520.556V42.872H521.556V41.872ZM526.196 41.872H527.196V40.872H526.196V41.872ZM526.196 46.8V47.8H527.196V46.8H526.196ZM521.556 46.8V45.8H520.556V46.8H521.556ZM526.196 52.592H527.196V51.592H526.196V52.592ZM526.196 57H521.972V59H526.196V57ZM521.972 57C520.102 57 518.775 56.5467 517.92 55.7628C517.08 54.9932 516.54 53.761 516.54 51.856H514.54C514.54 54.143 515.2 55.9828 516.568 57.2372C517.921 58.4773 519.81 59 521.972 59V57ZM516.54 51.856V46.8H514.54V51.856H516.54ZM515.54 45.8H513.172V47.8H515.54V45.8ZM514.172 46.8V41.872H512.172V46.8H514.172ZM513.172 42.872H515.54V40.872H513.172V42.872ZM516.54 41.872V39.088H514.54V41.872H516.54ZM515.54 40.088H521.556V38.088H515.54V40.088ZM520.556 39.088V41.872H522.556V39.088H520.556ZM521.556 42.872H526.196V40.872H521.556V42.872ZM525.196 41.872V46.8H527.196V41.872H525.196ZM526.196 45.8H521.556V47.8H526.196V45.8ZM520.556 46.8V50.992H522.556V46.8H520.556ZM520.556 50.992C520.556 51.6557 520.636 52.4643 521.253 53.017C521.832 53.5359 522.638 53.592 523.316 53.592V51.592C523.001 51.592 522.801 51.5727 522.673 51.5449C522.553 51.5186 522.553 51.4967 522.587 51.5271C522.628 51.5637 522.621 51.588 522.602 51.5179C522.578 51.432 522.556 51.2734 522.556 50.992H520.556ZM523.316 53.592H526.196V51.592H523.316V53.592ZM525.196 52.592V58H527.196V52.592H525.196Z" fill="white" mask="url(#path-4-outside-1_1_377)"/>
<mask id="path-6-outside-2_1_377" maskUnits="userSpaceOnUse" x="912" y="35" width="268" height="25" fill="black">
<rect fill="white" x="912" y="35" width="268" height="25"/>
<path d="M923.664 58.32C916.336 58.32 913.648 55.024 913.648 48.816V47.984H920.048V48.752C920.048 51.664 920.208 52.496 923.664 52.496C927.088 52.496 927.344 51.728 927.344 49.072V36.56H933.744V49.136C933.744 55.12 931.024 58.32 923.664 58.32ZM944.466 58.32C938.866 58.32 935.058 55.152 935.058 49.936C935.058 44.688 938.866 41.552 944.466 41.552C950.066 41.552 953.874 44.688 953.874 49.936C953.874 55.152 950.066 58.32 944.466 58.32ZM944.466 53.008C947.186 53.008 947.922 52.272 947.922 49.936C947.922 47.6 947.186 46.832 944.466 46.832C941.746 46.832 941.01 47.6 941.01 49.936C941.01 52.272 941.746 53.008 944.466 53.008ZM961.335 40.4H955.319V36.56H961.335V40.4ZM961.335 58H955.319V41.872H961.335V58ZM969.273 58H963.257V41.872H968.889V46.768H969.209C969.561 44.08 971.321 41.552 975.641 41.552C979.993 41.552 982.041 44.176 982.041 47.664V58H976.025V49.872C976.025 47.632 975.193 46.928 972.569 46.928C969.913 46.928 969.273 47.6 969.273 49.68V58ZM1001.41 58H995.392V41.968H987.808V36.56H1008.96V41.968H1001.41V58ZM1016.43 58H1010.41V36.56H1016.43V46.768H1016.75C1017.26 44.048 1019.05 41.552 1023.18 41.552C1027.47 41.552 1029.52 44.272 1029.52 47.856V58H1023.5V49.872C1023.5 47.632 1022.64 46.928 1019.89 46.928C1017.1 46.928 1016.43 47.6 1016.43 49.68V58ZM1040.31 58.32C1034.84 58.32 1031 55.984 1031 49.936C1031 44.688 1034.81 41.552 1040.18 41.552C1045.75 41.552 1049.3 44.336 1049.3 49.52C1049.3 50.064 1049.27 50.48 1049.21 51.056H1036.57C1036.66 53.008 1037.53 53.552 1040.09 53.552C1042.52 53.552 1043.16 53.136 1043.16 52.176V51.824H1049.18V52.208C1049.18 55.792 1045.75 58.32 1040.31 58.32ZM1040.06 46.16C1037.85 46.16 1036.92 46.64 1036.66 48.016H1043.48C1043.26 46.64 1042.3 46.16 1040.06 46.16ZM1068.12 58H1059.19L1054.71 36.56H1061.43L1063.22 47.472L1063.8 52.304H1064.21L1065.08 47.472L1067.96 36.56H1077.01L1079.64 47.472L1080.41 52.304H1080.82L1081.46 47.472L1083.48 36.56H1090.07L1085.17 58H1076.25L1074.01 48.816L1072.6 42.096H1072.18L1070.68 48.816L1068.12 58ZM1096.54 58.32C1092.89 58.32 1090.84 56.656 1090.84 53.904C1090.84 51.632 1092.41 50 1096.06 49.648L1102.62 49.008V48.688C1102.62 47.056 1101.91 46.8 1099.77 46.8C1097.78 46.8 1097.18 47.184 1097.18 48.528V48.656H1091.16V48.592C1091.16 44.304 1094.74 41.552 1100.22 41.552C1105.85 41.552 1108.57 44.304 1108.57 48.816V58H1102.94V54.608H1102.62C1102.01 56.88 1100.02 58.32 1096.54 58.32ZM1096.89 53.52C1096.89 54.032 1097.4 54.128 1098.33 54.128C1101.24 54.128 1102.42 53.776 1102.58 52.336L1097.66 52.912C1097.11 52.976 1096.89 53.168 1096.89 53.52ZM1116.37 40.4H1110.35V36.56H1116.37V40.4ZM1116.37 58H1110.35V41.872H1116.37V58ZM1130.35 58H1126.13C1122.1 58 1119.7 56.048 1119.7 51.856V46.8H1117.33V41.872H1119.7V39.088H1125.71V41.872H1130.35V46.8H1125.71V50.992C1125.71 52.272 1126.1 52.592 1127.47 52.592H1130.35V58ZM1137.8 58H1131.79V36.56H1137.8V58ZM1145.74 40.4H1139.73V36.56H1145.74V40.4ZM1145.74 58H1139.73V41.872H1145.74V58ZM1156.34 58.32C1150.64 58.32 1147.6 56.112 1147.6 52.4V52.272H1153.62V52.592C1153.62 53.488 1154.19 53.584 1156.37 53.584C1158.45 53.584 1158.77 53.36 1158.77 52.816C1158.77 52.304 1158.51 52.176 1157.01 52.016L1152.34 51.504C1149.01 51.152 1147.22 49.584 1147.22 46.864C1147.22 44.016 1149.49 41.552 1155.54 41.552C1161.14 41.552 1164.11 43.568 1164.11 47.536V47.664H1158.1V47.472C1158.1 46.64 1157.78 46.256 1155.34 46.256C1153.39 46.256 1153.14 46.512 1153.14 47.12C1153.14 47.568 1153.39 47.792 1155.28 47.984L1158.48 48.336C1163.18 48.848 1164.69 50.416 1164.69 53.136C1164.69 56.144 1161.68 58.32 1156.34 58.32ZM1178.2 58H1173.97C1169.94 58 1167.54 56.048 1167.54 51.856V46.8H1165.17V41.872H1167.54V39.088H1173.56V41.872H1178.2V46.8H1173.56V50.992C1173.56 52.272 1173.94 52.592 1175.32 52.592H1178.2V58Z"/>
</mask>
<path d="M913.648 47.984V46.984H912.648V47.984H913.648ZM920.048 47.984H921.048V46.984H920.048V47.984ZM927.344 36.56V35.56H926.344V36.56H927.344ZM933.744 36.56H934.744V35.56H933.744V36.56ZM923.664 57.32C920.126 57.32 917.938 56.5218 916.618 55.1916C915.297 53.8609 914.648 51.8001 914.648 48.816H912.648C912.648 52.0399 913.343 54.7311 915.198 56.6004C917.054 58.4702 919.874 59.32 923.664 59.32V57.32ZM914.648 48.816V47.984H912.648V48.816H914.648ZM913.648 48.984H920.048V46.984H913.648V48.984ZM919.048 47.984V48.752H921.048V47.984H919.048ZM919.048 48.752C919.048 49.4716 919.057 50.138 919.137 50.7056C919.218 51.2791 919.386 51.8644 919.789 52.3525C920.203 52.8543 920.765 53.1346 921.402 53.2914C922.021 53.4441 922.775 53.496 923.664 53.496V51.496C922.825 51.496 922.263 51.4439 921.88 51.3496C921.515 51.2594 921.389 51.1497 921.331 51.0795C921.262 50.9956 921.174 50.8269 921.117 50.4254C921.06 50.018 921.048 49.4884 921.048 48.752H919.048ZM923.664 53.496C924.544 53.496 925.289 53.448 925.903 53.3102C926.526 53.1703 927.088 52.9213 927.517 52.4645C927.946 52.0081 928.14 51.4518 928.236 50.8989C928.33 50.3589 928.344 49.7344 928.344 49.072H926.344C926.344 49.7376 926.326 50.2051 926.265 50.5561C926.207 50.8942 926.123 51.0279 926.059 51.0955C925.996 51.1627 925.852 51.2717 925.465 51.3588C925.067 51.448 924.496 51.496 923.664 51.496V53.496ZM928.344 49.072V36.56H926.344V49.072H928.344ZM927.344 37.56H933.744V35.56H927.344V37.56ZM932.744 36.56V49.136H934.744V36.56H932.744ZM932.744 49.136C932.744 51.9967 932.093 53.9726 930.769 55.2533C929.437 56.5423 927.225 57.32 923.664 57.32V59.32C927.463 59.32 930.292 58.4977 932.159 56.6907C934.036 54.8754 934.744 52.2593 934.744 49.136H932.744ZM944.466 57.32C941.849 57.32 939.75 56.5805 938.32 55.3311C936.906 54.0949 936.058 52.2839 936.058 49.936H934.058C934.058 52.8041 935.114 55.1851 937.004 56.8369C938.879 58.4755 941.484 59.32 944.466 59.32V57.32ZM936.058 49.936C936.058 47.5707 936.907 45.7609 938.319 44.5298C939.747 43.2848 941.846 42.552 944.466 42.552V40.552C941.486 40.552 938.881 41.3872 937.005 43.0222C935.113 44.6711 934.058 47.0533 934.058 49.936H936.058ZM944.466 42.552C947.086 42.552 949.185 43.2848 950.613 44.5298C952.025 45.7609 952.874 47.5707 952.874 49.936H954.874C954.874 47.0533 953.819 44.6711 951.927 43.0222C950.051 41.3872 947.446 40.552 944.466 40.552V42.552ZM952.874 49.936C952.874 52.2839 952.026 54.0949 950.612 55.3311C949.183 56.5805 947.084 57.32 944.466 57.32V59.32C947.449 59.32 950.054 58.4755 951.928 56.8369C953.818 55.1851 954.874 52.8041 954.874 49.936H952.874ZM944.466 54.008C945.841 54.008 947.058 53.8407 947.887 53.0882C948.748 52.3054 948.922 51.1441 948.922 49.936H946.922C946.922 51.0639 946.728 51.4386 946.542 51.6078C946.322 51.8073 945.812 52.008 944.466 52.008V54.008ZM948.922 49.936C948.922 48.7266 948.748 47.5631 947.893 46.7734C947.065 46.0093 945.848 45.832 944.466 45.832V47.832C945.805 47.832 946.315 48.0387 946.536 48.2426C946.729 48.4209 946.922 48.8094 946.922 49.936H948.922ZM944.466 45.832C943.085 45.832 941.867 46.0093 941.04 46.7734C940.185 47.5631 940.01 48.7266 940.01 49.936H942.01C942.01 48.8094 942.204 48.4209 942.397 48.2426C942.617 48.0387 943.128 47.832 944.466 47.832V45.832ZM940.01 49.936C940.01 51.1441 940.184 52.3054 941.046 53.0882C941.874 53.8407 943.092 54.008 944.466 54.008V52.008C943.121 52.008 942.61 51.8073 942.391 51.6078C942.204 51.4386 942.01 51.0639 942.01 49.936H940.01ZM961.335 40.4V41.4H962.335V40.4H961.335ZM955.319 40.4H954.319V41.4H955.319V40.4ZM955.319 36.56V35.56H954.319V36.56H955.319ZM961.335 36.56H962.335V35.56H961.335V36.56ZM961.335 58V59H962.335V58H961.335ZM955.319 58H954.319V59H955.319V58ZM955.319 41.872V40.872H954.319V41.872H955.319ZM961.335 41.872H962.335V40.872H961.335V41.872ZM961.335 39.4H955.319V41.4H961.335V39.4ZM956.319 40.4V36.56H954.319V40.4H956.319ZM955.319 37.56H961.335V35.56H955.319V37.56ZM960.335 36.56V40.4H962.335V36.56H960.335ZM961.335 57H955.319V59H961.335V57ZM956.319 58V41.872H954.319V58H956.319ZM955.319 42.872H961.335V40.872H955.319V42.872ZM960.335 41.872V58H962.335V41.872H960.335ZM969.273 58V59H970.273V58H969.273ZM963.257 58H962.257V59H963.257V58ZM963.257 41.872V40.872H962.257V41.872H963.257ZM968.889 41.872H969.889V40.872H968.889V41.872ZM968.889 46.768H967.889V47.768H968.889V46.768ZM969.209 46.768V47.768H970.086L970.2 46.8978L969.209 46.768ZM982.041 58V59H983.041V58H982.041ZM976.025 58H975.025V59H976.025V58ZM969.273 57H963.257V59H969.273V57ZM964.257 58V41.872H962.257V58H964.257ZM963.257 42.872H968.889V40.872H963.257V42.872ZM967.889 41.872V46.768H969.889V41.872H967.889ZM968.889 47.768H969.209V45.768H968.889V47.768ZM970.2 46.8978C970.355 45.7196 970.808 44.6504 971.624 43.8787C972.428 43.1186 973.685 42.552 975.641 42.552V40.552C973.277 40.552 971.494 41.2494 970.25 42.4253C969.018 43.5896 968.415 45.1284 968.217 46.6382L970.2 46.8978ZM975.641 42.552C977.612 42.552 978.928 43.1408 979.754 43.9952C980.587 44.8568 981.041 46.1112 981.041 47.664H983.041C983.041 45.7288 982.471 43.9272 981.192 42.6048C979.906 41.2752 978.022 40.552 975.641 40.552V42.552ZM981.041 47.664V58H983.041V47.664H981.041ZM982.041 57H976.025V59H982.041V57ZM977.025 58V49.872H975.025V58H977.025ZM977.025 49.872C977.025 48.6764 976.813 47.5505 975.929 46.7983C975.096 46.0901 973.901 45.928 972.569 45.928V47.928C973.861 47.928 974.393 48.1179 974.633 48.3217C974.821 48.4815 975.025 48.8276 975.025 49.872H977.025ZM972.569 45.928C971.238 45.928 970.065 46.0766 969.269 46.7695C968.421 47.507 968.273 48.6044 968.273 49.68H970.273C970.273 48.6756 970.445 48.397 970.581 48.2785C970.769 48.1154 971.244 47.928 972.569 47.928V45.928ZM968.273 49.68V58H970.273V49.68H968.273ZM1001.41 58V59H1002.41V58H1001.41ZM995.392 58H994.392V59H995.392V58ZM995.392 41.968H996.392V40.968H995.392V41.968ZM987.808 41.968H986.808V42.968H987.808V41.968ZM987.808 36.56V35.56H986.808V36.56H987.808ZM1008.96 36.56H1009.96V35.56H1008.96V36.56ZM1008.96 41.968V42.968H1009.96V41.968H1008.96ZM1001.41 41.968V40.968H1000.41V41.968H1001.41ZM1001.41 57H995.392V59H1001.41V57ZM996.392 58V41.968H994.392V58H996.392ZM995.392 40.968H987.808V42.968H995.392V40.968ZM988.808 41.968V36.56H986.808V41.968H988.808ZM987.808 37.56H1008.96V35.56H987.808V37.56ZM1007.96 36.56V41.968H1009.96V36.56H1007.96ZM1008.96 40.968H1001.41V42.968H1008.96V40.968ZM1000.41 41.968V58H1002.41V41.968H1000.41ZM1016.43 58V59H1017.43V58H1016.43ZM1010.41 58H1009.41V59H1010.41V58ZM1010.41 36.56V35.56H1009.41V36.56H1010.41ZM1016.43 36.56H1017.43V35.56H1016.43V36.56ZM1016.43 46.768H1015.43V47.768H1016.43V46.768ZM1016.75 46.768V47.768H1017.58L1017.73 46.953L1016.75 46.768ZM1029.52 58V59H1030.52V58H1029.52ZM1023.5 58H1022.5V59H1023.5V58ZM1016.43 57H1010.41V59H1016.43V57ZM1011.41 58V36.56H1009.41V58H1011.41ZM1010.41 37.56H1016.43V35.56H1010.41V37.56ZM1015.43 36.56V46.768H1017.43V36.56H1015.43ZM1016.43 47.768H1016.75V45.768H1016.43V47.768ZM1017.73 46.953C1017.96 45.7384 1018.46 44.6497 1019.29 43.8694C1020.11 43.1041 1021.33 42.552 1023.18 42.552V40.552C1020.9 40.552 1019.16 41.2479 1017.93 42.4106C1016.7 43.5583 1016.05 45.0776 1015.77 46.583L1017.73 46.953ZM1023.18 42.552C1025.11 42.552 1026.4 43.1552 1027.22 44.0406C1028.06 44.9387 1028.52 46.2476 1028.52 47.856H1030.52C1030.52 45.8804 1029.95 44.0373 1028.69 42.6793C1027.42 41.3088 1025.55 40.552 1023.18 40.552V42.552ZM1028.52 47.856V58H1030.52V47.856H1028.52ZM1029.52 57H1023.5V59H1029.52V57ZM1024.5 58V49.872H1022.5V58H1024.5ZM1024.5 49.872C1024.5 48.6671 1024.28 47.5341 1023.36 46.7846C1022.5 46.0892 1021.28 45.928 1019.89 45.928V47.928C1021.25 47.928 1021.83 48.1188 1022.09 48.3354C1022.29 48.4979 1022.5 48.8369 1022.5 49.872H1024.5ZM1019.89 45.928C1018.49 45.928 1017.29 46.0762 1016.47 46.7543C1015.59 47.4892 1015.43 48.5941 1015.43 49.68H1017.43C1017.43 48.6859 1017.61 48.4148 1017.75 48.2937C1017.97 48.1158 1018.49 47.928 1019.89 47.928V45.928ZM1015.43 49.68V58H1017.43V49.68H1015.43ZM1049.21 51.056V52.056H1050.1L1050.2 51.1664L1049.21 51.056ZM1036.57 51.056V50.056H1035.52L1035.57 51.1051L1036.57 51.056ZM1043.16 51.824V50.824H1042.16V51.824H1043.16ZM1049.18 51.824H1050.18V50.824H1049.18V51.824ZM1036.66 48.016L1035.68 47.8331L1035.46 49.016H1036.66V48.016ZM1043.48 48.016V49.016H1044.66L1044.47 47.8553L1043.48 48.016ZM1040.31 57.32C1037.69 57.32 1035.63 56.7582 1034.24 55.6209C1032.88 54.5139 1032 52.7351 1032 49.936H1030C1030 53.1849 1031.04 55.5981 1032.97 57.1711C1034.86 58.7138 1037.46 59.32 1040.31 59.32V57.32ZM1032 49.936C1032 47.5699 1032.85 45.7565 1034.24 44.5242C1035.64 43.2797 1037.68 42.552 1040.18 42.552V40.552C1037.31 40.552 1034.76 41.3923 1032.91 43.0278C1031.05 44.6755 1030 47.0541 1030 49.936H1032ZM1040.18 42.552C1042.81 42.552 1044.84 43.2101 1046.18 44.3545C1047.51 45.4788 1048.3 47.1725 1048.3 49.52H1050.3C1050.3 46.6835 1049.32 44.3932 1047.48 42.8295C1045.66 41.2859 1043.12 40.552 1040.18 40.552V42.552ZM1048.3 49.52C1048.3 50.0148 1048.28 50.3915 1048.21 50.9456L1050.2 51.1664C1050.27 50.5685 1050.3 50.1132 1050.3 49.52H1048.3ZM1049.21 50.056H1036.57V52.056H1049.21V50.056ZM1035.57 51.1051C1035.62 52.2011 1035.91 53.215 1036.83 53.8578C1037.66 54.4313 1038.81 54.552 1040.09 54.552V52.552C1038.81 52.552 1038.24 52.4007 1037.97 52.2142C1037.8 52.097 1037.61 51.8629 1037.57 51.0069L1035.57 51.1051ZM1040.09 54.552C1041.3 54.552 1042.28 54.4574 1042.97 54.1246C1043.35 53.9413 1043.68 53.671 1043.89 53.2867C1044.1 52.9143 1044.16 52.5219 1044.16 52.176H1042.16C1042.16 52.3101 1042.14 52.3297 1042.15 52.3053C1042.17 52.269 1042.19 52.2827 1042.1 52.3234C1041.86 52.4386 1041.3 52.552 1040.09 52.552V54.552ZM1044.16 52.176V51.824H1042.16V52.176H1044.16ZM1043.16 52.824H1049.18V50.824H1043.16V52.824ZM1048.18 51.824V52.208H1050.18V51.824H1048.18ZM1048.18 52.208C1048.18 53.6417 1047.51 54.8776 1046.21 55.79C1044.89 56.7194 1042.89 57.32 1040.31 57.32V59.32C1043.17 59.32 1045.61 58.6566 1047.36 57.426C1049.13 56.1784 1050.18 54.3583 1050.18 52.208H1048.18ZM1040.06 45.16C1038.92 45.16 1037.92 45.2757 1037.15 45.6924C1036.29 46.1587 1035.85 46.918 1035.68 47.8331L1037.65 48.1989C1037.73 47.738 1037.89 47.5693 1038.1 47.4516C1038.41 47.2843 1038.98 47.16 1040.06 47.16V45.16ZM1036.66 49.016H1043.48V47.016H1036.66V49.016ZM1044.47 47.8553C1044.31 46.9213 1043.87 46.1555 1042.99 45.6895C1042.22 45.2755 1041.21 45.16 1040.06 45.16V47.16C1041.14 47.16 1041.73 47.2845 1042.05 47.4545C1042.27 47.5725 1042.42 47.7347 1042.49 48.1767L1044.47 47.8553ZM1068.12 58V59H1068.88L1069.08 58.2685L1068.12 58ZM1059.19 58L1058.21 58.2045L1058.38 59H1059.19V58ZM1054.71 36.56V35.56H1053.48L1053.73 36.7645L1054.71 36.56ZM1061.43 36.56L1062.42 36.3979L1062.28 35.56H1061.43V36.56ZM1063.22 47.472L1064.21 47.3536L1064.21 47.3317L1064.21 47.3099L1063.22 47.472ZM1063.8 52.304L1062.8 52.4224L1062.91 53.304H1063.8V52.304ZM1064.21 52.304V53.304H1065.05L1065.2 52.48L1064.21 52.304ZM1065.08 47.472L1064.11 47.2168L1064.1 47.256L1064.09 47.296L1065.08 47.472ZM1067.96 36.56V35.56H1067.19L1066.99 36.3048L1067.96 36.56ZM1077.01 36.56L1077.99 36.3262L1077.8 35.56H1077.01V36.56ZM1079.64 47.472L1080.63 47.315L1080.62 47.2763L1080.61 47.2382L1079.64 47.472ZM1080.41 52.304L1079.42 52.461L1079.55 53.304H1080.41V52.304ZM1080.82 52.304V53.304H1081.7L1081.81 52.4353L1080.82 52.304ZM1081.46 47.472L1080.48 47.2903L1080.47 47.3154L1080.47 47.3407L1081.46 47.472ZM1083.48 36.56V35.56H1082.65L1082.49 36.3783L1083.48 36.56ZM1090.07 36.56L1091.04 36.7826L1091.32 35.56H1090.07V36.56ZM1085.17 58V59H1085.97L1086.15 58.2226L1085.17 58ZM1076.25 58L1075.27 58.237L1075.46 59H1076.25V58ZM1074.01 48.816L1073.03 49.0211L1073.03 49.0371L1073.03 49.053L1074.01 48.816ZM1072.6 42.096L1073.58 41.8909L1073.41 41.096H1072.6V42.096ZM1072.18 42.096V41.096H1071.38L1071.21 41.8776L1072.18 42.096ZM1070.68 48.816L1071.64 49.0845L1071.65 49.0596L1071.65 49.0344L1070.68 48.816ZM1068.12 57H1059.19V59H1068.12V57ZM1060.17 57.7955L1055.69 36.3555L1053.73 36.7645L1058.21 58.2045L1060.17 57.7955ZM1054.71 37.56H1061.43V35.56H1054.71V37.56ZM1060.44 36.7221L1062.24 47.6341L1064.21 47.3099L1062.42 36.3979L1060.44 36.7221ZM1062.23 47.5904L1062.8 52.4224L1064.79 52.1856L1064.21 47.3536L1062.23 47.5904ZM1063.8 53.304H1064.21V51.304H1063.8V53.304ZM1065.2 52.48L1066.06 47.648L1064.09 47.296L1063.23 52.128L1065.2 52.48ZM1066.04 47.7272L1068.92 36.8152L1066.99 36.3048L1064.11 47.2168L1066.04 47.7272ZM1067.96 37.56H1077.01V35.56H1067.96V37.56ZM1076.04 36.7938L1078.67 47.7058L1080.61 47.2382L1077.99 36.3262L1076.04 36.7938ZM1078.65 47.629L1079.42 52.461L1081.39 52.147L1080.63 47.315L1078.65 47.629ZM1080.41 53.304H1080.82V51.304H1080.41V53.304ZM1081.81 52.4353L1082.45 47.6033L1080.47 47.3407L1079.83 52.1727L1081.81 52.4353ZM1082.45 47.6537L1084.46 36.7417L1082.49 36.3783L1080.48 47.2903L1082.45 47.6537ZM1083.48 37.56H1090.07V35.56H1083.48V37.56ZM1089.09 36.3374L1084.2 57.7774L1086.15 58.2226L1091.04 36.7826L1089.09 36.3374ZM1085.17 57H1076.25V59H1085.17V57ZM1077.22 57.763L1074.98 48.579L1073.03 49.053L1075.27 58.237L1077.22 57.763ZM1074.98 48.6109L1073.58 41.8909L1071.62 42.3011L1073.03 49.0211L1074.98 48.6109ZM1072.6 41.096H1072.18V43.096H1072.6V41.096ZM1071.21 41.8776L1069.7 48.5976L1071.65 49.0344L1073.16 42.3144L1071.21 41.8776ZM1069.71 48.5475L1067.15 57.7315L1069.08 58.2685L1071.64 49.0845L1069.71 48.5475ZM1096.06 49.648L1096.15 50.6434L1096.15 50.6433L1096.06 49.648ZM1102.62 49.008L1102.71 50.0033L1103.62 49.9152V49.008H1102.62ZM1097.18 48.656V49.656H1098.18V48.656H1097.18ZM1091.16 48.656H1090.16V49.656H1091.16V48.656ZM1108.57 58V59H1109.57V58H1108.57ZM1102.94 58H1101.94V59H1102.94V58ZM1102.94 54.608H1103.94V53.608H1102.94V54.608ZM1102.62 54.608V53.608H1101.85L1101.65 54.3495L1102.62 54.608ZM1102.58 52.336L1103.58 52.4464L1103.72 51.1968L1102.47 51.3428L1102.58 52.336ZM1097.66 52.912L1097.54 51.9188L1097.54 51.9188L1097.66 52.912ZM1096.54 57.32C1094.85 57.32 1093.67 56.9331 1092.94 56.3575C1092.24 55.8073 1091.84 55.0074 1091.84 53.904H1089.84C1089.84 55.5526 1090.47 56.9607 1091.7 57.9305C1092.9 58.8749 1094.58 59.32 1096.54 59.32V57.32ZM1091.84 53.904C1091.84 53.0207 1092.13 52.3343 1092.73 51.8112C1093.37 51.2609 1094.44 50.8081 1096.15 50.6434L1095.96 48.6526C1094.02 48.8399 1092.49 49.3791 1091.42 50.3008C1090.33 51.2497 1089.84 52.5153 1089.84 53.904H1091.84ZM1096.15 50.6433L1102.71 50.0033L1102.52 48.0127L1095.96 48.6527L1096.15 50.6433ZM1103.62 49.008V48.688H1101.62V49.008H1103.62ZM1103.62 48.688C1103.62 47.7616 1103.42 46.8215 1102.51 46.2759C1102.12 46.0415 1101.68 45.9326 1101.25 45.8744C1100.81 45.8158 1100.31 45.8 1099.77 45.8V47.8C1100.29 47.8 1100.68 47.8162 1100.98 47.8566C1101.29 47.8974 1101.42 47.9545 1101.48 47.9881C1101.51 48.0042 1101.52 48.0132 1101.54 48.0699C1101.58 48.1575 1101.62 48.3378 1101.62 48.688H1103.62ZM1099.77 45.8C1098.79 45.8 1097.85 45.8784 1097.18 46.3254C1096.36 46.8637 1096.18 47.7231 1096.18 48.528H1098.18C1098.18 48.2564 1098.21 48.1189 1098.23 48.0552C1098.25 48.0155 1098.26 48.0088 1098.28 47.9946C1098.32 47.9667 1098.43 47.9108 1098.69 47.8669C1098.95 47.8233 1099.3 47.8 1099.77 47.8V45.8ZM1096.18 48.528V48.656H1098.18V48.528H1096.18ZM1097.18 47.656H1091.16V49.656H1097.18V47.656ZM1092.16 48.656V48.592H1090.16V48.656H1092.16ZM1092.16 48.592C1092.16 46.7564 1092.91 45.2886 1094.25 44.2545C1095.61 43.2016 1097.64 42.552 1100.22 42.552V40.552C1097.32 40.552 1094.82 41.2784 1093.02 42.6735C1091.2 44.0874 1090.16 46.1396 1090.16 48.592H1092.16ZM1100.22 42.552C1102.88 42.552 1104.69 43.2038 1105.83 44.2336C1106.96 45.2491 1107.57 46.7643 1107.57 48.816H1109.57C1109.57 46.3557 1108.82 44.2388 1107.17 42.7504C1105.54 41.2762 1103.18 40.552 1100.22 40.552V42.552ZM1107.57 48.816V58H1109.57V48.816H1107.57ZM1108.57 57H1102.94V59H1108.57V57ZM1103.94 58V54.608H1101.94V58H1103.94ZM1102.94 53.608H1102.62V55.608H1102.94V53.608ZM1101.65 54.3495C1101.41 55.2577 1100.9 55.9711 1100.12 56.4733C1099.31 56.9863 1098.15 57.32 1096.54 57.32V59.32C1098.41 59.32 1099.98 58.9337 1101.19 58.1587C1102.42 57.3729 1103.22 56.2303 1103.58 54.8665L1101.65 54.3495ZM1095.89 53.52C1095.89 53.8228 1095.97 54.1525 1096.19 54.4419C1096.4 54.7199 1096.68 54.8713 1096.92 54.9567C1097.35 55.1118 1097.88 55.128 1098.33 55.128V53.128C1098.11 53.128 1097.94 53.1222 1097.81 53.1095C1097.67 53.0964 1097.61 53.0793 1097.6 53.0753C1097.59 53.0728 1097.68 53.1041 1097.77 53.2201C1097.87 53.3475 1097.89 53.4732 1097.89 53.52H1095.89ZM1098.33 55.128C1099.77 55.128 1100.98 55.0483 1101.85 54.7024C1102.32 54.5183 1102.74 54.2429 1103.06 53.8286C1103.37 53.415 1103.52 52.9382 1103.58 52.4464L1101.59 52.2256C1101.56 52.4538 1101.51 52.561 1101.46 52.6184C1101.42 52.6751 1101.33 52.7577 1101.12 52.8416C1100.64 53.0317 1099.79 53.128 1098.33 53.128V55.128ZM1102.47 51.3428L1097.54 51.9188L1097.77 53.9052L1102.7 53.3292L1102.47 51.3428ZM1097.54 51.9188C1097.2 51.9589 1096.78 52.0538 1096.44 52.3296C1096.04 52.6545 1095.89 53.1022 1095.89 53.52H1097.89C1097.89 53.5374 1097.88 53.5993 1097.85 53.681C1097.81 53.7684 1097.75 53.8388 1097.7 53.8864C1097.64 53.929 1097.61 53.938 1097.62 53.9332C1097.64 53.9282 1097.68 53.9157 1097.77 53.9051L1097.54 51.9188ZM1116.37 40.4V41.4H1117.37V40.4H1116.37ZM1110.35 40.4H1109.35V41.4H1110.35V40.4ZM1110.35 36.56V35.56H1109.35V36.56H1110.35ZM1116.37 36.56H1117.37V35.56H1116.37V36.56ZM1116.37 58V59H1117.37V58H1116.37ZM1110.35 58H1109.35V59H1110.35V58ZM1110.35 41.872V40.872H1109.35V41.872H1110.35ZM1116.37 41.872H1117.37V40.872H1116.37V41.872ZM1116.37 39.4H1110.35V41.4H1116.37V39.4ZM1111.35 40.4V36.56H1109.35V40.4H1111.35ZM1110.35 37.56H1116.37V35.56H1110.35V37.56ZM1115.37 36.56V40.4H1117.37V36.56H1115.37ZM1116.37 57H1110.35V59H1116.37V57ZM1111.35 58V41.872H1109.35V58H1111.35ZM1110.35 42.872H1116.37V40.872H1110.35V42.872ZM1115.37 41.872V58H1117.37V41.872H1115.37ZM1130.35 58V59H1131.35V58H1130.35ZM1119.7 46.8H1120.7V45.8H1119.7V46.8ZM1117.33 46.8H1116.33V47.8H1117.33V46.8ZM1117.33 41.872V40.872H1116.33V41.872H1117.33ZM1119.7 41.872V42.872H1120.7V41.872H1119.7ZM1119.7 39.088V38.088H1118.7V39.088H1119.7ZM1125.71 39.088H1126.71V38.088H1125.71V39.088ZM1125.71 41.872H1124.71V42.872H1125.71V41.872ZM1130.35 41.872H1131.35V40.872H1130.35V41.872ZM1130.35 46.8V47.8H1131.35V46.8H1130.35ZM1125.71 46.8V45.8H1124.71V46.8H1125.71ZM1130.35 52.592H1131.35V51.592H1130.35V52.592ZM1130.35 57H1126.13V59H1130.35V57ZM1126.13 57C1124.26 57 1122.93 56.5467 1122.08 55.7628C1121.24 54.9932 1120.7 53.761 1120.7 51.856H1118.7C1118.7 54.143 1119.36 55.9828 1120.72 57.2372C1122.08 58.4773 1123.97 59 1126.13 59V57ZM1120.7 51.856V46.8H1118.7V51.856H1120.7ZM1119.7 45.8H1117.33V47.8H1119.7V45.8ZM1118.33 46.8V41.872H1116.33V46.8H1118.33ZM1117.33 42.872H1119.7V40.872H1117.33V42.872ZM1120.7 41.872V39.088H1118.7V41.872H1120.7ZM1119.7 40.088H1125.71V38.088H1119.7V40.088ZM1124.71 39.088V41.872H1126.71V39.088H1124.71ZM1125.71 42.872H1130.35V40.872H1125.71V42.872ZM1129.35 41.872V46.8H1131.35V41.872H1129.35ZM1130.35 45.8H1125.71V47.8H1130.35V45.8ZM1124.71 46.8V50.992H1126.71V46.8H1124.71ZM1124.71 50.992C1124.71 51.6557 1124.79 52.4643 1125.41 53.017C1125.99 53.5359 1126.79 53.592 1127.47 53.592V51.592C1127.16 51.592 1126.96 51.5727 1126.83 51.5449C1126.71 51.5186 1126.71 51.4967 1126.74 51.5271C1126.78 51.5637 1126.78 51.588 1126.76 51.5179C1126.73 51.432 1126.71 51.2734 1126.71 50.992H1124.71ZM1127.47 53.592H1130.35V51.592H1127.47V53.592ZM1129.35 52.592V58H1131.35V52.592H1129.35ZM1137.8 58V59H1138.8V58H1137.8ZM1131.79 58H1130.79V59H1131.79V58ZM1131.79 36.56V35.56H1130.79V36.56H1131.79ZM1137.8 36.56H1138.8V35.56H1137.8V36.56ZM1137.8 57H1131.79V59H1137.8V57ZM1132.79 58V36.56H1130.79V58H1132.79ZM1131.79 37.56H1137.8V35.56H1131.79V37.56ZM1136.8 36.56V58H1138.8V36.56H1136.8ZM1145.74 40.4V41.4H1146.74V40.4H1145.74ZM1139.73 40.4H1138.73V41.4H1139.73V40.4ZM1139.73 36.56V35.56H1138.73V36.56H1139.73ZM1145.74 36.56H1146.74V35.56H1145.74V36.56ZM1145.74 58V59H1146.74V58H1145.74ZM1139.73 58H1138.73V59H1139.73V58ZM1139.73 41.872V40.872H1138.73V41.872H1139.73ZM1145.74 41.872H1146.74V40.872H1145.74V41.872ZM1145.74 39.4H1139.73V41.4H1145.74V39.4ZM1140.73 40.4V36.56H1138.73V40.4H1140.73ZM1139.73 37.56H1145.74V35.56H1139.73V37.56ZM1144.74 36.56V40.4H1146.74V36.56H1144.74ZM1145.74 57H1139.73V59H1145.74V57ZM1140.73 58V41.872H1138.73V58H1140.73ZM1139.73 42.872H1145.74V40.872H1139.73V42.872ZM1144.74 41.872V58H1146.74V41.872H1144.74ZM1147.6 52.272V51.272H1146.6V52.272H1147.6ZM1153.62 52.272H1154.62V51.272H1153.62V52.272ZM1157.01 52.016L1156.9 53.0101L1156.9 53.0104L1157.01 52.016ZM1152.34 51.504L1152.44 50.5099L1152.44 50.5095L1152.34 51.504ZM1164.11 47.664V48.664H1165.11V47.664H1164.11ZM1158.1 47.664H1157.1V48.664H1158.1V47.664ZM1155.28 47.984L1155.39 46.99L1155.38 46.9891L1155.28 47.984ZM1158.48 48.336L1158.37 49.33L1158.37 49.3301L1158.48 48.336ZM1156.34 57.32C1153.59 57.32 1151.64 56.785 1150.4 55.929C1149.21 55.1076 1148.6 53.9415 1148.6 52.4H1146.6C1146.6 54.5705 1147.51 56.3644 1149.26 57.575C1150.97 58.751 1153.38 59.32 1156.34 59.32V57.32ZM1148.6 52.4V52.272H1146.6V52.4H1148.6ZM1147.6 53.272H1153.62V51.272H1147.6V53.272ZM1152.62 52.272V52.592H1154.62V52.272H1152.62ZM1152.62 52.592C1152.62 52.9075 1152.66 53.3051 1152.9 53.6711C1153.15 54.0554 1153.52 54.2609 1153.86 54.3745C1154.19 54.4822 1154.57 54.5284 1154.96 54.553C1155.35 54.5782 1155.82 54.584 1156.37 54.584V52.584C1155.82 52.584 1155.41 52.5778 1155.08 52.557C1154.75 52.5356 1154.57 52.5018 1154.49 52.4735C1154.42 52.4511 1154.5 52.4646 1154.58 52.5789C1154.64 52.6749 1154.62 52.7245 1154.62 52.592H1152.62ZM1156.37 54.584C1157.38 54.584 1158.16 54.5371 1158.69 54.3435C1158.99 54.2339 1159.31 54.0447 1159.53 53.7052C1159.74 53.3761 1159.77 53.0375 1159.77 52.816H1157.77C1157.77 52.8665 1157.76 52.7599 1157.84 52.6258C1157.94 52.4813 1158.04 52.4501 1158 52.4645C1157.95 52.4833 1157.82 52.5183 1157.53 52.5447C1157.25 52.5702 1156.87 52.584 1156.37 52.584V54.584ZM1159.77 52.816C1159.77 52.6206 1159.75 52.3187 1159.58 52.0162C1159.4 51.6911 1159.13 51.4955 1158.87 51.3756C1158.44 51.1773 1157.82 51.0967 1157.11 51.0216L1156.9 53.0104C1157.27 53.0498 1157.54 53.0847 1157.74 53.1206C1157.84 53.1383 1157.91 53.1545 1157.96 53.1687C1157.99 53.1756 1158 53.1814 1158.02 53.1858C1158.03 53.1903 1158.03 53.1927 1158.03 53.1924C1158.02 53.1885 1157.91 53.1309 1157.83 52.9788C1157.76 52.8493 1157.77 52.7554 1157.77 52.816H1159.77ZM1157.12 51.022L1152.44 50.51L1152.23 52.498L1156.9 53.01L1157.12 51.022ZM1152.44 50.5095C1150.9 50.3462 1149.85 49.9131 1149.2 49.328C1148.57 48.7694 1148.22 47.9844 1148.22 46.864H1146.22C1146.22 48.4636 1146.75 49.8226 1147.86 50.816C1148.94 51.7829 1150.45 52.3098 1152.23 52.4985L1152.44 50.5095ZM1148.22 46.864C1148.22 45.7347 1148.65 44.7161 1149.7 43.9461C1150.79 43.1474 1152.63 42.552 1155.54 42.552V40.552C1152.4 40.552 1150.08 41.1886 1148.52 42.3339C1146.92 43.5079 1146.22 45.1453 1146.22 46.864H1148.22ZM1155.54 42.552C1158.24 42.552 1160.15 43.0444 1161.35 43.8781C1162.5 44.6692 1163.11 45.8393 1163.11 47.536H1165.11C1165.11 45.2647 1164.24 43.4428 1162.49 42.2339C1160.81 41.0676 1158.43 40.552 1155.54 40.552V42.552ZM1163.11 47.536V47.664H1165.11V47.536H1163.11ZM1164.11 46.664H1158.1V48.664H1164.11V46.664ZM1159.1 47.664V47.472H1157.1V47.664H1159.1ZM1159.1 47.472C1159.1 47.2181 1159.07 46.8702 1158.92 46.5249C1158.75 46.1425 1158.46 45.8576 1158.09 45.6651C1157.75 45.4881 1157.35 45.3935 1156.93 45.3376C1156.5 45.2805 1155.97 45.256 1155.34 45.256V47.256C1155.93 47.256 1156.36 47.2795 1156.67 47.3204C1156.99 47.3625 1157.12 47.4159 1157.17 47.4389C1157.18 47.4464 1157.13 47.4135 1157.09 47.3371C1157.08 47.2978 1157.1 47.3099 1157.1 47.472H1159.1ZM1155.34 45.256C1154.84 45.256 1154.41 45.2723 1154.06 45.3117C1153.72 45.3501 1153.39 45.4164 1153.09 45.5496C1152.77 45.6954 1152.49 45.9296 1152.31 46.2829C1152.15 46.6008 1152.14 46.9173 1152.14 47.12H1154.14C1154.14 47.0187 1154.15 47.0752 1154.1 47.1741C1154.07 47.2302 1154.03 47.281 1153.99 47.3204C1153.95 47.3574 1153.92 47.3708 1153.92 47.3704C1153.94 47.3636 1154.03 47.3279 1154.29 47.2993C1154.53 47.2717 1154.87 47.256 1155.34 47.256V45.256ZM1152.14 47.12C1152.14 47.3208 1152.16 47.6307 1152.35 47.9408C1152.54 48.2522 1152.82 48.4396 1153.09 48.5588C1153.56 48.7719 1154.25 48.8846 1155.18 48.9789L1155.38 46.9891C1154.92 46.9425 1154.58 46.896 1154.33 46.8486C1154.08 46.7998 1153.96 46.7577 1153.91 46.7372C1153.87 46.7204 1153.97 46.7558 1154.06 46.8932C1154.14 47.0293 1154.14 47.1432 1154.14 47.12H1152.14ZM1155.17 48.978L1158.37 49.33L1158.59 47.342L1155.39 46.99L1155.17 48.978ZM1158.37 49.3301C1160.66 49.5795 1161.97 50.0716 1162.71 50.6791C1163.38 51.232 1163.69 51.9794 1163.69 53.136H1165.69C1165.69 51.5726 1165.24 50.176 1163.98 49.1369C1162.79 48.1524 1161 47.6045 1158.59 47.3419L1158.37 49.3301ZM1163.69 53.136C1163.69 54.257 1163.15 55.2558 1161.97 56.0167C1160.77 56.7977 1158.89 57.32 1156.34 57.32V59.32C1159.13 59.32 1161.42 58.7543 1163.06 57.6953C1164.72 56.6162 1165.69 55.023 1165.69 53.136H1163.69ZM1178.2 58V59H1179.2V58H1178.2ZM1167.54 46.8H1168.54V45.8H1167.54V46.8ZM1165.17 46.8H1164.17V47.8H1165.17V46.8ZM1165.17 41.872V40.872H1164.17V41.872H1165.17ZM1167.54 41.872V42.872H1168.54V41.872H1167.54ZM1167.54 39.088V38.088H1166.54V39.088H1167.54ZM1173.56 39.088H1174.56V38.088H1173.56V39.088ZM1173.56 41.872H1172.56V42.872H1173.56V41.872ZM1178.2 41.872H1179.2V40.872H1178.2V41.872ZM1178.2 46.8V47.8H1179.2V46.8H1178.2ZM1173.56 46.8V45.8H1172.56V46.8H1173.56ZM1178.2 52.592H1179.2V51.592H1178.2V52.592ZM1178.2 57H1173.97V59H1178.2V57ZM1173.97 57C1172.1 57 1170.77 56.5467 1169.92 55.7628C1169.08 54.9932 1168.54 53.761 1168.54 51.856H1166.54C1166.54 54.143 1167.2 55.9828 1168.57 57.2372C1169.92 58.4773 1171.81 59 1173.97 59V57ZM1168.54 51.856V46.8H1166.54V51.856H1168.54ZM1167.54 45.8H1165.17V47.8H1167.54V45.8ZM1166.17 46.8V41.872H1164.17V46.8H1166.17ZM1165.17 42.872H1167.54V40.872H1165.17V42.872ZM1168.54 41.872V39.088H1166.54V41.872H1168.54ZM1167.54 40.088H1173.56V38.088H1167.54V40.088ZM1172.56 39.088V41.872H1174.56V39.088H1172.56ZM1173.56 42.872H1178.2V40.872H1173.56V42.872ZM1177.2 41.872V46.8H1179.2V41.872H1177.2ZM1178.2 45.8H1173.56V47.8H1178.2V45.8ZM1172.56 46.8V50.992H1174.56V46.8H1172.56ZM1172.56 50.992C1172.56 51.6557 1172.64 52.4643 1173.25 53.017C1173.83 53.5359 1174.64 53.592 1175.32 53.592V51.592C1175 51.592 1174.8 51.5727 1174.67 51.5449C1174.55 51.5186 1174.55 51.4967 1174.59 51.5271C1174.63 51.5637 1174.62 51.588 1174.6 51.5179C1174.58 51.432 1174.56 51.2734 1174.56 50.992H1172.56ZM1175.32 53.592H1178.2V51.592H1175.32V53.592ZM1177.2 52.592V58H1179.2V52.592H1177.2Z" fill="white" mask="url(#path-6-outside-2_1_377)"/>
</svg>
