<svg width="64" height="64" viewBox="0 0 64 64" fill="none" xmlns="http://www.w3.org/2000/svg">
<rect width="64" height="64" rx="8" fill="#6A65FF"/>
<path fill-rule="evenodd" clip-rule="evenodd" d="M24.8 24.8001V23.0001C24.8 20.0178 27.2177 17.6001 30.2 17.6001H33.8C36.7823 17.6001 39.2 20.0178 39.2 23.0001V24.8001H42.8C44.7882 24.8001 46.4 26.4119 46.4 28.4001V34.8275C41.9174 36.4906 37.0668 37.4 32 37.4C26.9333 37.4 22.0827 36.4906 17.6 34.8274V28.4001C17.6 26.4119 19.2118 24.8001 21.2 24.8001H24.8ZM28.4 23.0001C28.4 22.006 29.2059 21.2001 30.2 21.2001H33.8C34.7941 21.2001 35.6 22.006 35.6 23.0001V24.8001H28.4V23.0001ZM30.2 32.0001C30.2 31.006 31.0059 30.2001 32 30.2001H32.018C33.0121 30.2001 33.818 31.006 33.818 32.0001C33.818 32.9942 33.0121 33.8001 32.018 33.8001H32C31.0059 33.8001 30.2 32.9942 30.2 32.0001Z" fill="white"/>
<path d="M17.6 38.6462V42.8001C17.6 44.7883 19.2118 46.4001 21.2 46.4001H42.8C44.7882 46.4001 46.4 44.7883 46.4 42.8001V38.6462C41.877 40.1729 37.0335 41 32 41C26.9665 41 22.123 40.1729 17.6 38.6462Z" fill="white"/>
</svg>
