<svg width="64" height="64" viewBox="0 0 64 64" fill="none" xmlns="http://www.w3.org/2000/svg">
<rect width="64" height="64" rx="8" fill="#6A65FF"/>
<path fill-rule="evenodd" clip-rule="evenodd" d="M21.2 21.2001C21.2 19.2119 22.8118 17.6001 24.8 17.6001H39.2C41.1882 17.6001 42.8 19.2119 42.8 21.2001V42.8001C43.7941 42.8001 44.6 43.606 44.6 44.6001C44.6 45.5942 43.7941 46.4001 42.8 46.4001H36.6C36.0477 46.4001 35.6 45.9524 35.6 45.4001V41.0001C35.6 40.006 34.7941 39.2001 33.8 39.2001H30.2C29.2059 39.2001 28.4 40.006 28.4 41.0001V45.4001C28.4 45.9524 27.9523 46.4001 27.4 46.4001H21.2C20.2059 46.4001 19.4 45.5942 19.4 44.6001C19.4 43.606 20.2059 42.8001 21.2 42.8001V21.2001ZM26.6 23.0001H30.2V26.6001H26.6V23.0001ZM30.2 30.2001H26.6V33.8001H30.2V30.2001ZM33.8 23.0001H37.4V26.6001H33.8V23.0001ZM37.4 30.2001H33.8V33.8001H37.4V30.2001Z" fill="white"/>
</svg>
