<svg width="81" height="77" viewBox="0 0 81 77" fill="none" xmlns="http://www.w3.org/2000/svg">
<path fill-rule="evenodd" clip-rule="evenodd" d="M40.4168 76.1C62.6635 76.1 80.6979 59.1092 80.6979 38.15C80.6979 17.1908 62.6635 0.200012 40.4168 0.200012C18.1702 0.200012 0.135742 17.1908 0.135742 38.15C0.135742 59.1092 18.1702 76.1 40.4168 76.1Z" fill="#FEDC5A" fill-opacity="0.1"/>
<path d="M51.12 22.2H30.8821C28.7338 22.2024 26.9928 23.8069 26.9902 25.787V54.4826C26.9902 54.7399 27.1398 54.9776 27.3821 55.1053C27.6245 55.2331 27.9226 55.2314 28.1633 55.101L41.001 48.1409L53.8388 55.0995C54.0793 55.2299 54.377 55.2317 54.6193 55.1043C54.8615 54.9768 55.0113 54.7397 55.0119 54.4826V25.787C55.0093 23.8069 53.2683 22.2024 51.12 22.2Z" fill="#FEDC5A"/>
</svg>
