<svg width="50" height="50" viewBox="0 0 50 50" fill="none" xmlns="http://www.w3.org/2000/svg">
<circle cx="25" cy="25" r="25" fill="#236BFE" fill-opacity="0.05"/>
<path d="M29.1892 15H20.8092C17.1692 15 14.9992 17.17 14.9992 20.81V29.18C14.9992 32.83 17.1692 35 20.8092 35H29.1792C32.8192 35 34.9892 32.83 34.9892 29.19V20.81C34.9992 17.17 32.8292 15 29.1892 15ZM22.9392 26.27C22.2592 27.29 21.3192 28.12 20.2192 28.67C20.1192 28.72 19.9992 28.75 19.8892 28.75C19.6092 28.75 19.3492 28.6 19.2192 28.34C19.0292 27.97 19.1792 27.52 19.5592 27.33C20.4292 26.9 21.1692 26.24 21.6992 25.44C21.8792 25.17 21.8792 24.83 21.6992 24.56C21.1592 23.76 20.4192 23.1 19.5592 22.67C19.1792 22.49 19.0292 22.04 19.2192 21.66C19.3992 21.29 19.8492 21.14 20.2192 21.33C21.3192 21.88 22.2592 22.71 22.9392 23.73C23.4592 24.5 23.4592 25.5 22.9392 26.27ZM29.9992 28.75H25.9992C25.5892 28.75 25.2492 28.41 25.2492 28C25.2492 27.59 25.5892 27.25 25.9992 27.25H29.9992C30.4092 27.25 30.7492 27.59 30.7492 28C30.7492 28.41 30.4092 28.75 29.9992 28.75Z" fill="#236BFE"/>
</svg>
