<svg width="81" height="76" viewBox="0 0 81 76" fill="none" xmlns="http://www.w3.org/2000/svg">
<path fill-rule="evenodd" clip-rule="evenodd" d="M40.4168 75.9C62.6635 75.9 80.6979 58.9092 80.6979 37.95C80.6979 16.9908 62.6635 0 40.4168 0C18.1702 0 0.135742 16.9908 0.135742 37.95C0.135742 58.9092 18.1702 75.9 40.4168 75.9Z" fill="#F04037" fill-opacity="0.1"/>
<path d="M37.9791 40.7H27.677C27.2979 40.7 26.9902 40.3967 26.9902 40.0231V23.7769C26.9902 23.4032 27.2979 23.1 27.677 23.1H37.9791C38.3582 23.1 38.6659 23.4032 38.6659 23.7769V40.0231C38.6659 40.3967 38.3582 40.7 37.9791 40.7Z" fill="#F04037"/>
<path d="M37.9791 53.9H27.677C27.2979 53.9 26.9902 53.5832 26.9902 53.1929V44.7071C26.9902 44.3168 27.2979 44 27.677 44H37.9791C38.3582 44 38.6659 44.3168 38.6659 44.7071V53.1929C38.6659 53.5832 38.3582 53.9 37.9791 53.9Z" fill="#F04037"/>
<path d="M54.325 33H44.0229C43.6438 33 43.3361 32.6832 43.3361 32.2928V23.8071C43.3361 23.4168 43.6438 23.1 44.0229 23.1H54.325C54.7041 23.1 55.0118 23.4168 55.0118 23.8071V32.2928C55.0118 32.6832 54.7041 33 54.325 33Z" fill="#F04037"/>
<path d="M54.3248 53.8999H44.0227C43.6436 53.8999 43.3359 53.5967 43.3359 53.223V36.9768C43.3359 36.6032 43.6436 36.2999 44.0227 36.2999H54.3248C54.7039 36.2999 55.0116 36.6032 55.0116 36.9768V53.223C55.0116 53.5967 54.7039 53.8999 54.3248 53.8999Z" fill="#F04037"/>
</svg>
