<svg width="82" height="77" viewBox="0 0 82 77" fill="none" xmlns="http://www.w3.org/2000/svg">
<path fill-rule="evenodd" clip-rule="evenodd" d="M40.741 76.1C62.9876 76.1 81.0221 59.1092 81.0221 38.15C81.0221 17.1908 62.9876 0.200012 40.741 0.200012C18.4944 0.200012 0.45993 17.1908 0.45993 38.15C0.45993 59.1092 18.4944 76.1 40.741 76.1Z" fill="#F04037" fill-opacity="0.1"/>
<path fill-rule="evenodd" clip-rule="evenodd" d="M55.0312 23.3H27.6188C25.5161 23.3 23.8115 24.9416 23.8115 26.9666V43.0998C23.8115 44.0722 24.2126 45.0048 24.9266 45.6925C25.6406 46.3801 26.609 46.7664 27.6188 46.7664H34.8679L40.7311 53.8246C40.8756 53.9987 41.0944 54.1 41.3258 54.1C41.5571 54.1 41.776 53.9987 41.9205 53.8246L47.7822 46.7664H55.0312C57.1339 46.7664 58.8385 45.1248 58.8385 43.0998V26.9666C58.8385 24.9416 57.1339 23.3 55.0312 23.3ZM42.9303 38.7H32.7141C32.3111 38.7 31.9843 38.4537 31.9843 38.15C31.9843 37.8462 32.3111 37.6 32.7141 37.6H42.9303C43.3333 37.6 43.66 37.8462 43.66 38.15C43.66 38.4537 43.3333 38.7 42.9303 38.7ZM32.7478 32.1H51.0696C51.4912 32.1 51.833 31.8537 51.833 31.55C51.833 31.2462 51.4912 31 51.0696 31H32.7478C32.3261 31 31.9843 31.2462 31.9843 31.55C31.9843 31.8537 32.3261 32.1 32.7478 32.1Z" fill="#F04037"/>
</svg>
