<svg width="113" height="116" viewBox="0 0 113 116" fill="none" xmlns="http://www.w3.org/2000/svg">
<path fill-rule="evenodd" clip-rule="evenodd" d="M56.1948 116C87.2304 116 112.39 90.0325 112.39 58C112.39 25.9675 87.2304 0 56.1948 0C25.1593 0 0 25.9675 0 58C0 90.0325 25.1593 116 56.1948 116Z" fill="#6A65FF"/>
<path d="M65.0226 57.5931L47.8253 47.7708C47.6813 47.6885 47.5048 47.6894 47.3618 47.7733C47.2187 47.8571 47.1308 48.0111 47.1309 48.1777V67.8224C47.1308 67.989 47.2187 68.143 47.3618 68.2268C47.5048 68.3106 47.6813 68.3116 47.8253 68.2293L65.0226 58.407C65.1682 58.3239 65.2582 58.1685 65.2582 58C65.2582 57.8316 65.1682 57.6762 65.0226 57.5931Z" fill="white"/>
</svg>
