<svg width="82" height="76" viewBox="0 0 82 76" fill="none" xmlns="http://www.w3.org/2000/svg">
<path fill-rule="evenodd" clip-rule="evenodd" d="M40.741 75.9C62.9876 75.9 81.0221 58.9092 81.0221 37.95C81.0221 16.9908 62.9876 0 40.741 0C18.4944 0 0.45993 16.9908 0.45993 37.95C0.45993 58.9092 18.4944 75.9 40.741 75.9Z" fill="#5454D4" fill-opacity="0.1"/>
<path d="M42.4927 53.9H23.9985C22.6056 53.9 21.4765 52.8113 21.4765 51.4684V25.5316C21.4765 24.1886 22.6056 23.1 23.9985 23.1H42.4927V24.721H23.9985C23.5342 24.721 23.1578 25.0839 23.1578 25.5316V51.4684C23.1578 51.916 23.5342 52.2789 23.9985 52.2789H42.4927V53.9Z" fill="#5454D4"/>
<path fill-rule="evenodd" clip-rule="evenodd" d="M44.828 23.1H58.593C60.0184 23.1 61.1739 24.1886 61.1739 25.5316V51.4684C61.1739 52.8113 60.0184 53.9 58.593 53.9H44.828V23.1ZM49.99 45.7947H56.0122C56.4874 45.7947 56.8725 45.4318 56.8725 44.9842C56.8725 44.5365 56.4874 44.1737 56.0122 44.1737H49.99C49.5149 44.1737 49.1297 44.5365 49.1297 44.9842C49.1297 45.4318 49.5149 45.7947 49.99 45.7947ZM56.0122 39.3105H49.99C49.5149 39.3105 49.1297 38.9476 49.1297 38.5C49.1297 38.0523 49.5149 37.6894 49.99 37.6894H56.0122C56.4874 37.6894 56.8725 38.0523 56.8725 38.5C56.8725 38.9476 56.4874 39.3105 56.0122 39.3105ZM49.99 32.8263H56.0122C56.4874 32.8263 56.8725 32.4634 56.8725 32.0157C56.8725 31.5681 56.4874 31.2052 56.0122 31.2052H49.99C49.5149 31.2052 49.1297 31.5681 49.1297 32.0157C49.1297 32.4634 49.5149 32.8263 49.99 32.8263Z" fill="#5454D4"/>
</svg>
