<svg width="82" height="76" viewBox="0 0 82 76" fill="none" xmlns="http://www.w3.org/2000/svg">
<path fill-rule="evenodd" clip-rule="evenodd" d="M41.0926 75.9C63.3392 75.9 81.3737 58.9092 81.3737 37.95C81.3737 16.9908 63.3392 0 41.0926 0C18.846 0 0.811523 16.9908 0.811523 37.95C0.811523 58.9092 18.846 75.9 41.0926 75.9Z" fill="#FEDC5A" fill-opacity="0.1"/>
<path d="M40.5087 28.7939C36.4235 27.9924 32.0692 29.6994 28.9772 33.4706C28.7662 33.7276 28.7891 34.0951 29.0304 34.3263L32.2385 37.4C34.3891 34.0466 37.1976 31.1241 40.5087 28.7939Z" fill="#FEDC5A"/>
<path d="M44.0107 48.496L47.2834 51.5151C47.5283 51.741 47.9175 51.7625 48.1898 51.565C52.2088 48.6513 54.0182 44.5447 53.1295 40.7C50.6585 43.813 47.5629 46.4596 44.0107 48.496V48.496Z" fill="#FEDC5A"/>
<path fill-rule="evenodd" clip-rule="evenodd" d="M56.1425 24.201C56.3352 24.1906 56.523 24.2605 56.6563 24.392C56.7914 24.5192 56.8631 24.6943 56.8536 24.8741C55.8039 42.27 39.6849 48.2987 39.5213 48.3579C39.4441 48.3859 39.3621 48.4002 39.2793 48.3999C39.1001 48.3999 38.9282 48.3328 38.8015 48.2134L31.3662 41.2084C31.1783 41.0316 31.1178 40.7675 31.2114 40.5334C31.2736 40.3793 37.5936 25.1135 56.1425 24.201ZM40.6318 36.9372C40.6318 38.3441 41.8423 39.4845 43.3356 39.4845C44.8288 39.4845 46.0393 38.3441 46.0393 36.9372C46.0393 35.5304 44.8288 34.39 43.3356 34.39C41.8423 34.39 40.6318 35.5304 40.6318 36.9372Z" fill="#FEDC5A"/>
<path d="M33.4092 47.2395C31.7245 45.8534 28.9971 45.8534 27.3124 47.2395C25.7628 48.5167 25.3726 52.785 25.3317 53.2679C25.3183 53.4317 25.3881 53.5928 25.5243 53.7126C25.6605 53.8325 25.851 53.9003 26.0501 53.8999H26.0983C26.6838 53.8668 31.8602 53.5445 33.4092 52.2679C35.0911 50.8786 35.0911 48.6287 33.4092 47.2395Z" fill="#FEDC5A"/>
</svg>
