<svg width="64" height="64" viewBox="0 0 64 64" fill="none" xmlns="http://www.w3.org/2000/svg">
<rect width="64" height="64" rx="8" fill="#6A65FF"/>
<path fill-rule="evenodd" clip-rule="evenodd" d="M32 46.4001C39.9529 46.4001 46.4 39.953 46.4 32.0001C46.4 24.0472 39.9529 17.6001 32 17.6001C24.0471 17.6001 17.6 24.0472 17.6 32.0001C17.6 39.953 24.0471 46.4001 32 46.4001ZM38.6728 29.6729C39.3757 28.9699 39.3757 27.8302 38.6728 27.1273C37.9698 26.4244 36.8302 26.4244 36.1272 27.1273L30.2 33.0545L27.8728 30.7273C27.1698 30.0244 26.0302 30.0244 25.3272 30.7273C24.6243 31.4302 24.6243 32.5699 25.3272 33.2729L28.9272 36.8729C29.6301 37.5758 30.7698 37.5758 31.4728 36.8729L38.6728 29.6729Z" fill="white"/>
</svg>
