<svg width="82" height="77" viewBox="0 0 82 77" fill="none" xmlns="http://www.w3.org/2000/svg">
<path fill-rule="evenodd" clip-rule="evenodd" d="M41.0926 76.1C63.3392 76.1 81.3737 59.1092 81.3737 38.15C81.3737 17.1908 63.3392 0.200012 41.0926 0.200012C18.846 0.200012 0.811523 17.1908 0.811523 38.15C0.811523 59.1092 18.846 76.1 41.0926 76.1Z" fill="#5454D4" fill-opacity="0.1"/>
<path d="M53.7586 32.9146C50.9349 32.9146 46.2282 36.1217 41.2461 39.5177C36.8717 42.4996 31.913 45.8794 29.595 45.8794C26.2647 45.8794 23.5541 43.3343 23.5541 40.2073C23.5541 37.0803 26.2647 34.5352 29.595 34.5352C30.1784 34.5352 30.968 34.7434 31.9147 35.1251L29.7434 38.8533C29.5812 39.1304 29.6071 39.4707 29.8073 39.7244C29.9712 39.9334 30.2301 40.0517 30.5003 40.0517C30.5581 40.0517 30.6185 40.046 30.6772 40.0347L38.4009 38.5186C38.646 38.47 38.8574 38.325 38.9791 38.1183C39.1008 37.9117 39.1206 37.6662 39.0335 37.4458L36.2779 30.4302C36.1606 30.132 35.8689 29.9254 35.5315 29.9027C35.2001 29.8767 34.873 30.0437 34.7116 30.3224L32.7432 33.703C31.4944 33.1868 30.4355 32.9146 29.595 32.9146C25.312 32.9146 21.8281 36.1858 21.8281 40.2073C21.8281 44.2288 25.312 47.5 29.595 47.5C32.473 47.5 37.2272 44.2596 42.2602 40.8296C46.588 37.8793 51.4949 34.5352 53.7586 34.5352C57.0888 34.5352 59.7994 37.0803 59.7994 40.2073C59.7994 43.3343 57.0888 45.8794 53.7586 45.8794C52.3916 45.8794 49.9079 44.7766 46.7649 42.7735C46.3714 42.5207 45.8346 42.6196 45.5662 42.9891C45.2979 43.3594 45.4014 43.8634 45.7958 44.1146C49.3202 46.3607 51.9998 47.5 53.7586 47.5C58.0415 47.5 61.5254 44.2288 61.5254 40.2073C61.5254 36.1858 58.0415 32.9146 53.7586 32.9146Z" fill="#5454D4"/>
</svg>
